<?xml version="1.0" encoding="UTF-8" standalone="no"?>
<svg
   xmlns:dc="http://purl.org/dc/elements/1.1/"
   xmlns:cc="http://creativecommons.org/ns#"
   xmlns:rdf="http://www.w3.org/1999/02/22-rdf-syntax-ns#"
   xmlns:svg="http://www.w3.org/2000/svg"
   xmlns="http://www.w3.org/2000/svg"
   xmlns:sodipodi="http://sodipodi.sourceforge.net/DTD/sodipodi-0.dtd"
   xmlns:inkscape="http://www.inkscape.org/namespaces/inkscape"
   inkscape:version="1.0 (4035a4fb49, 2020-05-01)"
   sodipodi:docname="instagram.svg"
   id="svg4"
   version="1.1"
   height="44"
   width="44"
   viewBox="0 0 22 22"
   fill="#000000">
  <metadata
     id="metadata10">
    <rdf:RDF>
      <cc:Work
         rdf:about="">
        <dc:format>image/svg+xml</dc:format>
        <dc:type
           rdf:resource="http://purl.org/dc/dcmitype/StillImage" />
        <dc:title></dc:title>
      </cc:Work>
    </rdf:RDF>
  </metadata>
  <defs
     id="defs8" />
  <sodipodi:namedview
     inkscape:current-layer="svg4"
     inkscape:window-maximized="1"
     inkscape:window-y="-8"
     inkscape:window-x="2552"
     inkscape:cy="20.608731"
     inkscape:cx="28.888226"
     inkscape:zoom="9.8332037"
     fit-margin-bottom="0"
     fit-margin-right="0"
     fit-margin-left="0"
     fit-margin-top="0"
     showgrid="false"
     id="namedview6"
     inkscape:window-height="1057"
     inkscape:window-width="1858"
     inkscape:pageshadow="2"
     inkscape:pageopacity="0"
     guidetolerance="10"
     gridtolerance="10"
     objecttolerance="10"
     borderopacity="1"
     bordercolor="#666666"
     pagecolor="#ffffff" />
  <path
     style="fill:#333333"
     id="path2"
     d="M 6.46875,0 C 2.917969,0 0,2.914063 0,6.46875 v 9.0625 C 0,19.082031 2.914063,22 6.46875,22 h 9.0625 C 19.082031,22 22,19.085938 22,15.53125 V 6.46875 C 22,2.917969 19.085938,0 15.53125,0 Z m 0,2 h 9.0625 C 18.003906,2 20,3.996094 20,6.46875 v 9.0625 C 20,18.003906 18.003906,20 15.53125,20 H 6.46875 C 3.996094,20 2,18.003906 2,15.53125 V 6.46875 C 2,3.996094 3.996094,2 6.46875,2 Z m 10.4375,2.1875 C 16.402344,4.1875 16,4.589844 16,5.09375 16,5.597656 16.402344,6 16.90625,6 17.410156,6 17.8125,5.597656 17.8125,5.09375 17.8125,4.589844 17.410156,4.1875 16.90625,4.1875 Z M 11,5 c -3.300781,0 -6,2.699219 -6,6 0,3.300781 2.699219,6 6,6 3.300781,0 6,-2.699219 6,-6 0,-3.300781 -2.699219,-6 -6,-6 z m 0,2 c 2.222656,0 4,1.777344 4,4 0,2.222656 -1.777344,4 -4,4 C 8.777344,15 7,13.222656 7,11 7,8.777344 8.777344,7 11,7 Z" />
</svg>
