<!--?xml version="1.0" encoding="utf-8"?-->
<!-- Generator: Adobe Illustrator 19.1.1, SVG Export Plug-In . SVG Version: 6.00 Build 0)  -->
<svg version="1.1" id="_x31_0" xmlns="http://www.w3.org/2000/svg" xmlns:xlink="http://www.w3.org/1999/xlink" x="0px" y="0px" viewBox="0 0 512 512" style="width: 256px; height: 256px; opacity: 1;" xml:space="preserve">
<style type="text/css">
	.st0{fill:#374149;}
</style>
<g>
	<path class="st0" d="M269.89,406.203c-0.679-2.515-1.402-4.938-2.274-7.266c-0.824-2.562-1.793-4.984-2.812-7.312
		c-4.454-10.555-9.879-18.547-14.188-22.469c-5.523-5.086-30.515-17.774-51.82-28.626c-15.547-7.992-24.313-14.914-26.832-17.195
		v-13.461v-7.406c1.16-0.438,2.278-1.258,3.34-2.43c0.195-0.187,0.39-0.382,0.531-0.625c2.957-3.336,5.379-7.118,6.59-10.649
		c0.145-0.438,0.293-0.874,0.434-1.312c2.664-7.555,4.703-16.078,5.086-18.5c0.046-0.242,0.046-0.438,0.098-0.633
		c1.113,0.336,2.179,0.484,3.098,0.484c11.238,0,15.84-23.008,16.469-29.054c0.679-6.102-4.746-10.266-6.73-11.867
		c0.434-0.969,0.965-2.422,1.5-4.118c0.05-0.102,0.098-0.242,0.144-0.382c0.68-2.086,1.649-4.898,2.52-8.813
		c0.531-2.336,1.015-5.094,1.453-8.336c0.289-1.984,0.34-4.117,0.242-6.203c-0.145-4.359-1.066-8.859-2.664-12.976
		c-1.309-3.586-3.149-6.875-5.375-9.539l-0.05-0.047c-1.547-1.843-3.29-3.734-5.133-5.43c-7.266-7.023-15.836-12.687-19.856-12.687
		c-8.137-14.625-18.55-24.118-37.824-25.422c-1.164-0.054-2.324-0.054-3.586-0.102h-0.242c-14.531,0-39.035,12.5-51.527,29.547
		c0,0.047,0,0.047,0,0.047c-1.262,1.695-2.379,3.438-3.344,5.179c-1.649,3-3.149,5.813-4.41,8.477
		c-2.031,4.313-3.582,8.328-4.546,12.344c-0.586,1.89-0.969,3.828-1.164,5.82c-0.172,1.168-0.126,2.453-0.215,3.664
		c-0.027,0.422-0.054,0.852-0.074,1.282c-0.125,2.652-0.05,5.504,0.219,8.476c0.007,0.106,0.019,0.211,0.031,0.317
		c0.156,1.66,0.191,3.199,0.472,4.996v0.054c0.438,2.954,1.02,6.149,1.794,9.586c0.046,0.046,0.046,0.102,0.046,0.148
		c0.586,1.696,1.066,3.149,1.602,4.118c-1.938,1.602-6.734,4.258-6.152,10.312c0.629,6.102,4.55,30.61,15.785,30.61
		c1.02,0,2.082-0.148,3.242-0.48c0,0,0.004,0,0.008,0c0.191,1.941,1.21,7.457,3.289,13.074c0.586,1.641,1.262,3.727,1.988,5.906
		c0.145,0.438,0.294,0.828,0.434,1.258c1.211,3.493,3.489,7.266,6.348,10.516c0.293,0.336,0.629,0.68,0.918,1.016
		c1.066,1.117,2.18,1.937,3.344,2.374v7.258v13.609c-2.469,2.282-11.285,9.258-26.781,17.195
		C52,351.429,27.109,364.125,21.585,369.156c-4.308,3.874-9.734,11.914-14.238,22.469c-0.969,2.328-1.938,4.75-2.809,7.312
		c-0.824,2.328-1.598,4.75-2.226,7.266c-0.875,3.055-1.551,6.195-2.133,9.446c-1.066,6.203,2.71,12.156,8.766,13.703
		c35.5,9.062,79.523,14.438,127.23,14.438c47.652,0,91.629-5.375,127.082-14.383c6.102-1.546,9.879-7.554,8.766-13.758
		C271.441,412.398,270.715,409.258,269.89,406.203z" style="fill: rgb(58, 171, 210);"></path>
	<path class="st0" d="M469.336,101.804c-25.969-21.664-60.164-33.594-96.293-33.594c-36.126,0-70.325,11.93-96.29,33.594
		c-27.511,22.954-42.668,53.93-42.668,87.226c0,42.157,25.274,80.938,65.692,102.734l3.175,22.618
		c1.469,10.453,8.406,19.344,18.196,23.297c3.578,1.446,7.339,2.156,11.078,2.156c6.492,0,12.918-2.133,18.203-6.258l30.625-23.922
		c33.149-1.626,64.242-13.344,88.282-33.391C496.848,253.312,512,222.328,512,189.031S496.848,124.758,469.336,101.804z
		 M373.043,280.289c-0.786,0-1.566-0.031-2.356-0.047l-25.984,20.293l-12.406,9.59l-0.633-4.094l-1.234-8.609l-3.606-25.68
		c-16.062-6.258-29.984-15.68-40.652-27.297c-0.199-0.218-0.414-0.422-0.61-0.641c-1.07-1.187-2.07-2.422-3.074-3.656
		c-0.465-0.578-0.961-1.133-1.41-1.719c-0.774-1-1.481-2.031-2.211-3.054c-0.59-0.836-1.207-1.664-1.766-2.508
		c-0.625-0.953-1.187-1.938-1.774-2.906c-0.566-0.938-1.16-1.867-1.687-2.829c-0.633-1.14-1.195-2.312-1.766-3.484
		c-0.391-0.782-0.813-1.562-1.18-2.359c-0.813-1.797-1.554-3.633-2.234-5.477c-0.062-0.164-0.133-0.32-0.195-0.485
		c-3-8.328-4.614-17.148-4.614-26.297c0-50.39,48.977-91.25,109.391-91.25c60.418,0,109.394,40.859,109.394,91.25
		C482.437,239.429,433.461,280.289,373.043,280.289z" style="fill: rgb(58, 171, 210);"></path>
	<path class="st0" d="M406.5,206.891l-26.149-64.805h-14.617l-26.137,64.785l-9.824,24.191l0.062,0.004l-0.062,0.161h19.285
		l7.234-19.266h33.5l7.238,19.266h19.285l-0.034-0.094h0.034L406.5,206.891z M378.547,198.008h-12.696l-4.316-0.054l3.019-7.883
		l8.489-21.898l8.523,21.992l2.969,7.817L378.547,198.008z" style="fill: rgb(58, 171, 210);"></path>
</g>
</svg>
