<?xml version="1.0" encoding="UTF-8" standalone="no"?>
<svg
   xmlns:dc="http://purl.org/dc/elements/1.1/"
   xmlns:cc="http://creativecommons.org/ns#"
   xmlns:rdf="http://www.w3.org/1999/02/22-rdf-syntax-ns#"
   xmlns:svg="http://www.w3.org/2000/svg"
   xmlns="http://www.w3.org/2000/svg"
   xmlns:sodipodi="http://sodipodi.sourceforge.net/DTD/sodipodi-0.dtd"
   xmlns:inkscape="http://www.inkscape.org/namespaces/inkscape"
   inkscape:version="1.0 (4035a4fb49, 2020-05-01)"
   sodipodi:docname="Instagram.svg"
   id="svg14"
   version="1.1"
   fill="none"
   viewBox="0 0 48 48"
   height="48"
   width="48">
  <metadata
     id="metadata20">
    <rdf:RDF>
      <cc:Work
         rdf:about="">
        <dc:format>image/svg+xml</dc:format>
        <dc:type
           rdf:resource="http://purl.org/dc/dcmitype/StillImage" />
        <dc:title></dc:title>
      </cc:Work>
    </rdf:RDF>
  </metadata>
  <defs
     id="defs18" />
  <sodipodi:namedview
     inkscape:current-layer="svg14"
     inkscape:window-maximized="1"
     inkscape:window-y="-8"
     inkscape:window-x="2552"
     inkscape:cy="14.035585"
     inkscape:cx="-55.368386"
     inkscape:zoom="2.3645833"
     showgrid="false"
     id="namedview16"
     inkscape:window-height="1057"
     inkscape:window-width="1858"
     inkscape:pageshadow="2"
     inkscape:pageopacity="0"
     guidetolerance="10"
     gridtolerance="10"
     objecttolerance="10"
     borderopacity="1"
     bordercolor="#666666"
     pagecolor="#ffffff" />
  <path
     style="fill:#cf2e92;fill-opacity:1"
     id="path2"
     fill="#00B900"
     d="M0 24C0 10.7452 10.7452 0 24 0C37.2548 0 48 10.7452 48 24C48 37.2548 37.2548 48 24 48C10.7452 48 0 37.2548 0 24Z" />
  <path
     style="fill:#ffffff;stroke-width:1"
     d="m 24.000001,13.488869 c 3.42357,0 3.829612,0.01282 5.182371,0.0748 3.47486,0.158143 5.097958,1.806885 5.2561,5.2561 0.06198,1.351691 0.07373,1.757732 0.07373,5.181303 0,3.42464 -0.01282,3.829612 -0.07373,5.181303 -0.159211,3.44601 -1.778034,5.097958 -5.2561,5.2561 -1.352759,0.06198 -1.756663,0.0748 -5.182371,0.0748 -3.423571,0 -3.829613,-0.01282 -5.181303,-0.0748 -3.483409,-0.159211 -5.097958,-1.815433 -5.2561,-5.257168 -0.06198,-1.351691 -0.0748,-1.756664 -0.0748,-5.181303 0,-3.423571 0.01389,-3.828544 0.0748,-5.181303 0.159211,-3.448147 1.778034,-5.097958 5.2561,-5.2561 1.352759,-0.06091 1.757732,-0.07373 5.181303,-0.07373 z m 0,-2.311231 c -3.48234,0 -3.918301,0.01496 -5.286019,0.07693 -4.656655,0.213707 -7.244635,2.797413 -7.458341,7.458341 -0.06304,1.368787 -0.078,1.804748 -0.078,5.287088 0,3.48234 0.01496,3.919368 0.07693,5.287087 0.213707,4.656655 2.797413,7.244635 7.458341,7.458341 1.368787,0.06197 1.804748,0.07693 5.287088,0.07693 3.48234,0 3.919368,-0.01496 5.287087,-0.07693 4.652381,-0.213706 7.246772,-2.797412 7.457272,-7.458341 0.06304,-1.367719 0.078,-1.804747 0.078,-5.287087 0,-3.48234 -0.01496,-3.918301 -0.07693,-5.286019 -0.209432,-4.652381 -2.796344,-7.244635 -7.457272,-7.458341 -1.368788,-0.06304 -1.805816,-0.078 -5.288156,-0.078 z m 0,6.23808 c -3.636209,0 -6.584283,2.948074 -6.584283,6.584283 0,3.636208 2.948074,6.585351 6.584283,6.585351 3.636208,0 6.584283,-2.948074 6.584283,-6.585351 0,-3.636209 -2.948075,-6.584283 -6.584283,-6.584283 z m 0,10.858404 c -2.360384,0 -4.274121,-1.91267 -4.274121,-4.274121 0,-2.360384 1.913737,-4.274121 4.274121,-4.274121 2.360383,0 4.274121,1.913737 4.274121,4.274121 0,2.361451 -1.913738,4.274121 -4.274121,4.274121 z m 6.845004,-12.656741 c -0.85055,0 -1.539752,0.689202 -1.539752,1.538684 0,0.849481 0.689202,1.538683 1.539752,1.538683 0.849482,0 1.537615,-0.689202 1.537615,-1.538683 0,-0.849482 -0.688133,-1.538684 -1.537615,-1.538684 z"
     id="path2-1" />
</svg>
