<?xml version="1.0" encoding="UTF-8" standalone="no"?>
<svg
   xmlns:dc="http://purl.org/dc/elements/1.1/"
   xmlns:cc="http://creativecommons.org/ns#"
   xmlns:rdf="http://www.w3.org/1999/02/22-rdf-syntax-ns#"
   xmlns:svg="http://www.w3.org/2000/svg"
   xmlns="http://www.w3.org/2000/svg"
   xmlns:sodipodi="http://sodipodi.sourceforge.net/DTD/sodipodi-0.dtd"
   xmlns:inkscape="http://www.inkscape.org/namespaces/inkscape"
   inkscape:version="1.0 (4035a4fb49, 2020-05-01)"
   sodipodi:docname="Line.svg"
   id="svg14"
   version="1.1"
   fill="none"
   viewBox="0 0 48 48"
   height="48"
   width="48">
  <metadata
     id="metadata20">
    <rdf:RDF>
      <cc:Work
         rdf:about="">
        <dc:format>image/svg+xml</dc:format>
        <dc:type
           rdf:resource="http://purl.org/dc/dcmitype/StillImage" />
        <dc:title></dc:title>
      </cc:Work>
    </rdf:RDF>
  </metadata>
  <defs
     id="defs18" />
  <sodipodi:namedview
     inkscape:current-layer="svg14"
     inkscape:window-maximized="1"
     inkscape:window-y="-8"
     inkscape:window-x="2552"
     inkscape:cy="14.035585"
     inkscape:cx="-55.368386"
     inkscape:zoom="2.3645833"
     showgrid="false"
     id="namedview16"
     inkscape:window-height="1057"
     inkscape:window-width="1858"
     inkscape:pageshadow="2"
     inkscape:pageopacity="0"
     guidetolerance="10"
     gridtolerance="10"
     objecttolerance="10"
     borderopacity="1"
     bordercolor="#666666"
     pagecolor="#ffffff" />
  <path
     id="path2"
     fill="#00B900"
     d="M0 24C0 10.7452 10.7452 0 24 0C37.2548 0 48 10.7452 48 24C48 37.2548 37.2548 48 24 48C10.7452 48 0 37.2548 0 24Z" />
  <path
     id="path4"
     fill="white"
     d="M24.3995 11.2C16.2395 11.2 9.59961 16.5489 9.59961 23.1237C9.59961 29.018 14.8648 33.9543 21.9771 34.8877C22.4591 34.9908 23.1151 35.2032 23.2811 35.6122C23.4303 35.9837 23.3787 36.5657 23.3287 36.9408C23.3287 36.9408 23.1551 37.9777 23.1176 38.1985C23.0532 38.57 22.8203 39.6514 24.3995 38.9906C25.9792 38.3298 32.9229 34.0081 36.0279 30.4598C38.1723 28.1248 39.1996 25.7551 39.1996 23.1237C39.1996 16.5489 32.5606 11.2 24.3995 11.2Z" />
  <path
     id="path6"
     fill="#00B900"
     d="M20.2859 20C20.1282 20 20 20.1323 20 20.2949V26.9051C20 27.068 20.1282 27.2 20.2859 27.2H21.3144C21.4721 27.2 21.6 27.068 21.6 26.9051V20.2949C21.6 20.1323 21.4721 20 21.3144 20H20.2859Z" />
  <path
     id="path8"
     fill="#00B900"
     d="M28.4997 20H27.417C27.251 20 27.1164 20.1323 27.1164 20.2949V24.2221L24.0341 20.1312C24.027 20.1207 24.019 20.1108 24.0107 20.1012L24.0087 20.0995C24.0028 20.0928 23.9968 20.087 23.9906 20.0811C23.9889 20.0794 23.9871 20.0779 23.985 20.0762C23.98 20.0715 23.9746 20.0672 23.969 20.0631C23.9667 20.0608 23.964 20.059 23.9613 20.057C23.956 20.0535 23.951 20.0497 23.9456 20.0465C23.9427 20.0445 23.9397 20.0427 23.9365 20.0413C23.9311 20.0381 23.9258 20.0349 23.9205 20.0323C23.9172 20.0308 23.9143 20.0291 23.911 20.0279C23.9054 20.0253 23.8998 20.0227 23.8939 20.0206C23.8903 20.0195 23.8874 20.0183 23.8841 20.0172C23.8782 20.0151 23.8723 20.0131 23.866 20.0116C23.8628 20.0105 23.8592 20.0099 23.8557 20.0087C23.8498 20.0076 23.8441 20.0061 23.8385 20.0049C23.8344 20.0044 23.8299 20.0038 23.8258 20.0035C23.8205 20.0023 23.8151 20.002 23.8098 20.0015C23.8048 20.0009 23.7998 20.0009 23.7944 20.0006C23.7906 20.0006 23.7876 20 23.7838 20H22.7013C22.5353 20 22.4004 20.1323 22.4004 20.2949V26.9051C22.4004 27.068 22.5353 27.2 22.7013 27.2H23.7838C23.9501 27.2 24.0847 27.068 24.0847 26.9051V22.9791L27.1708 27.0752C27.1921 27.1049 27.2184 27.129 27.2471 27.1482C27.248 27.1488 27.2492 27.1497 27.2501 27.1506C27.2563 27.1543 27.2625 27.1581 27.2687 27.1616C27.2717 27.1634 27.2744 27.1645 27.2773 27.166C27.2818 27.1686 27.2868 27.1709 27.2915 27.173C27.2966 27.175 27.301 27.177 27.3063 27.1791C27.3093 27.1802 27.3122 27.1814 27.3152 27.1823C27.3223 27.1849 27.3288 27.1869 27.3356 27.1889C27.3371 27.1889 27.3386 27.1895 27.3401 27.1898C27.3646 27.1962 27.3904 27.2 27.417 27.2H28.4997C28.666 27.2 28.8004 27.068 28.8004 26.9051V20.2949C28.8004 20.1323 28.666 20 28.4997 20" />
  <path
     id="path10"
     fill="#00B900"
     d="M18.908 25.5447H16.0413V20.2955C16.0413 20.1323 15.9101 20 15.7487 20H14.6933C14.5316 20 14.4004 20.1323 14.4004 20.2955V26.9043V26.9048C14.4004 26.9842 14.4318 27.0561 14.4823 27.109C14.4834 27.1104 14.4846 27.1119 14.4863 27.1133C14.4878 27.1148 14.4892 27.116 14.4906 27.1174C14.5434 27.1686 14.6143 27.2 14.6931 27.2H18.908C19.0698 27.2 19.2004 27.0674 19.2004 26.9043V25.8402C19.2004 25.6771 19.0698 25.5447 18.908 25.5447" />
  <path
     id="path12"
     fill="#00B900"
     d="M34.1072 21.6553C34.269 21.6553 34.3996 21.5232 34.3996 21.3598V20.2957C34.3996 20.1326 34.269 20 34.1072 20H29.8926H29.892C29.813 20 29.7418 20.032 29.689 20.0835C29.6878 20.0846 29.6864 20.0855 29.6855 20.0867C29.6838 20.0884 29.6824 20.0901 29.6809 20.0919C29.6308 20.1448 29.5996 20.2164 29.5996 20.2955V20.2957V26.9045V26.9048C29.5996 26.9842 29.631 27.0561 29.6815 27.109C29.6827 27.1104 29.6841 27.1122 29.6855 27.1133C29.6867 27.1148 29.6884 27.1162 29.6899 27.1174C29.7423 27.1683 29.8136 27.2 29.892 27.2H34.1072C34.269 27.2 34.3996 27.0674 34.3996 26.9045V25.8402C34.3996 25.6774 34.269 25.5447 34.1072 25.5447H31.2408V24.4275H34.1072C34.269 24.4275 34.3996 24.2952 34.3996 24.132V23.068C34.3996 22.9048 34.269 22.7722 34.1072 22.7722H31.2408V21.6553H34.1072Z" />
</svg>
