<?xml version="1.0" encoding="UTF-8" standalone="no"?>
<!-- Created with Inkscape (http://www.inkscape.org/) -->

<svg
   width="88.991867mm"
   height="54.999996mm"
   viewBox="0 0 336.3472 207.874"
   version="1.1"
   id="svg5"
   inkscape:version="1.1.2 (b8e25be833, 2022-02-05)"
   sodipodi:docname="mail.svg"
   xmlns:inkscape="http://www.inkscape.org/namespaces/inkscape"
   xmlns:sodipodi="http://sodipodi.sourceforge.net/DTD/sodipodi-0.dtd"
   xmlns="http://www.w3.org/2000/svg"
   xmlns:svg="http://www.w3.org/2000/svg">
  <sodipodi:namedview
     id="namedview7"
     pagecolor="#ffffff"
     bordercolor="#999999"
     borderopacity="1"
     inkscape:pageshadow="0"
     inkscape:pageopacity="1"
     inkscape:pagecheckerboard="0"
     inkscape:document-units="mm"
     showgrid="false"
     inkscape:snap-bbox="true"
     inkscape:bbox-paths="true"
     inkscape:bbox-nodes="true"
     inkscape:snap-bbox-edge-midpoints="true"
     inkscape:snap-bbox-midpoints="true"
     inkscape:snap-intersection-paths="true"
     inkscape:object-paths="true"
     inkscape:snap-smooth-nodes="true"
     inkscape:snap-midpoints="true"
     inkscape:snap-object-midpoints="true"
     inkscape:snap-text-baseline="true"
     inkscape:snap-page="true"
     inkscape:snap-center="true"
     fit-margin-top="0"
     fit-margin-left="0"
     fit-margin-right="0"
     fit-margin-bottom="0"
     inkscape:zoom="0.3201295"
     inkscape:cx="1012.0904"
     inkscape:cy="446.69423"
     inkscape:window-width="1920"
     inkscape:window-height="1009"
     inkscape:window-x="-8"
     inkscape:window-y="-8"
     inkscape:window-maximized="1"
     inkscape:current-layer="text2512"
     showguides="false">
    <sodipodi:guide
       position="128.47319,207.87399"
       orientation="207.87401,0"
       id="guide1490" />
  </sodipodi:namedview>
  <defs
     id="defs2" />
  <g
     inkscape:label="Layer 1"
     inkscape:groupmode="layer"
     id="layer1">
    <g
       id="g7839"
       transform="translate(0,-0.77511131)">
      <g
         aria-label="MAIL"
         id="text2512"
         style="font-size:27.3098px;line-height:1.25;fill:#180a00;stroke-width:0.682746">
        <path
           d="m 216.40666,97.058485 q 0.51888,0 0.87391,0.355027 0.35503,0.327718 0.35503,0.873914 0,0.546196 -0.40965,0.901223 -0.38234,0.355027 -0.92853,0.327718 -0.76468,-0.08193 -1.36549,-0.136549 -0.57351,-0.02731 -1.11971,-0.02731 -0.51888,0 -1.1197,0.02731 -0.5735,0.05462 -1.36549,0.136549 -0.54619,0.02731 -0.92853,-0.327718 -0.38234,-0.355027 -0.38234,-0.901223 0,-0.546196 0.38234,-0.901224 0.38234,-0.382337 0.92853,-0.327717 0.30041,0.02731 0.62813,0.05462 0.35503,0.02731 0.68274,0.05462 h 0.0546 q 0.19117,0 0.19117,-0.218479 V 83.157797 q 0,-0.191169 -0.10924,-0.191169 -0.10924,-0.02731 -0.16386,0.136549 l -5.62582,12.999465 q -0.19116,0.436956 -0.5735,0.710054 -0.35503,0.245789 -0.8193,0.245789 -0.43695,0 -0.8466,-0.273098 -0.38234,-0.273098 -0.5462,-0.682745 l -5.18886,-13.026775 q -0.0273,-0.163858 -0.13655,-0.163858 -0.13654,0 -0.13654,0.218478 v 13.818758 q 0,0.218479 0.19116,0.218479 0.35503,0 0.68275,-0.02731 0.35503,-0.05462 0.68274,-0.08193 0.5462,-0.05462 0.92854,0.327717 0.38233,0.355028 0.38233,0.901224 0,0.546196 -0.38233,0.901223 -0.38234,0.355027 -0.92854,0.327718 -0.76467,-0.08193 -1.36549,-0.136549 -0.5735,-0.02731 -1.1197,-0.02731 -0.54619,0 -1.1197,0.02731 -0.57351,0.05462 -1.36549,0.136549 -0.5462,0.02731 -0.95584,-0.327718 -0.38234,-0.355027 -0.38234,-0.901223 0,-0.546196 0.35503,-0.873914 0.35502,-0.355027 0.87391,-0.355027 0.43696,0 0.79199,0.08193 0.27309,0 0.27309,-0.245788 V 81.38266 q 0,-0.245788 -0.24578,-0.245788 -0.16386,0.02731 -0.35503,0.05462 -0.19117,0 -0.40965,0 -0.51889,0 -0.87391,-0.355027 -0.35503,-0.355027 -0.35503,-0.873914 0,-0.546196 0.40965,-0.901223 0.40964,-0.355027 0.95584,-0.300408 0.90122,0.109239 1.50204,0.163859 0.60081,0.05462 1.22894,0.05462 0.79198,0 1.42011,0.436956 0.65543,0.436957 0.92853,1.174322 l 4.9977,12.753676 q 0.0819,0.163859 0.16385,0.163859 0.13655,0 0.16386,-0.163859 l 5.38003,-12.780986 q 0.30041,-0.710055 0.95585,-1.147012 0.65543,-0.436956 1.42011,-0.436956 0.65543,0 1.22894,-0.05462 0.5735,-0.05462 1.42011,-0.163859 0.54619,-0.05462 0.95584,0.327718 0.40965,0.355027 0.40965,0.901223 0,0.518886 -0.35503,0.873914 -0.35503,0.327717 -0.87391,0.327717 -0.19117,0 -0.38234,-0.02731 -0.16386,-0.02731 -0.38234,-0.02731 h -0.0546 q -0.19117,0 -0.19117,0.218478 v 15.539276 q 0,0.245788 0.2731,0.245788 0.40965,-0.08193 0.79199,-0.08193 z"
           style="font-weight:500;font-family:'Kiwi Maru';-inkscape-font-specification:'Kiwi Maru Medium';text-align:center;text-anchor:middle"
           id="path13" />
        <path
           d="m 241.34048,97.058485 q 0.51888,0 0.87391,0.355027 0.35503,0.327718 0.35503,0.873914 0,0.546196 -0.40965,0.901223 -0.38234,0.355027 -0.92853,0.327718 -1.55666,-0.163859 -2.48519,-0.163859 -1.01047,0 -2.4852,0.163859 -0.54619,0.02731 -0.92853,-0.327718 -0.38234,-0.355027 -0.38234,-0.901223 0,-0.546196 0.32772,-0.873914 0.35503,-0.355027 0.87391,-0.355027 0.24579,0 0.51889,0.02731 0.30041,0.02731 0.57351,0.08193 0.32771,0 0.19117,-0.273098 l -1.28357,-2.867529 q -0.0819,-0.191169 -0.27309,-0.191169 h -9.44919 q -0.16386,0 -0.2731,0.191169 l -1.28356,2.867529 q -0.0273,0.05462 -0.0273,0.109239 0,0.163859 0.21848,0.163859 0.3004,-0.05462 0.5735,-0.08193 0.2731,-0.02731 0.51889,-0.02731 0.51888,0 0.8466,0.355027 0.35503,0.327718 0.35503,0.873914 0,0.546196 -0.38234,0.901223 -0.38234,0.355027 -0.92853,0.327718 -1.58397,-0.163859 -2.48519,-0.163859 -1.03778,0 -2.48519,0.163859 -0.5462,0.02731 -0.95585,-0.327718 -0.38233,-0.355027 -0.38233,-0.901223 0,-0.546196 0.35502,-0.873914 0.35503,-0.355027 0.87392,-0.355027 0.27309,0 0.51888,0.02731 0.24579,0.02731 0.49158,0.05462 h 0.0546 q 0.13655,0 0.24579,-0.163859 l 7.91984,-17.61482 q 0.2731,-0.628126 0.95584,-0.628126 0.65544,0 0.92853,0.628126 l 7.97447,17.61482 q 0.10923,0.163859 0.24578,0.163859 0.2731,0 0.51889,-0.02731 0.2731,-0.05462 0.51889,-0.05462 z m -10.0227,-13.791449 q -0.0273,-0.163859 -0.16386,-0.163859 -0.0819,0 -0.16386,0.163859 l -3.57758,7.974461 q -0.0273,0.05462 -0.0273,0.10924 0,0.191168 0.21848,0.191168 h 7.10055 q 0.32771,0 0.19116,-0.300408 z"
           style="font-weight:500;font-family:'Kiwi Maru';-inkscape-font-specification:'Kiwi Maru Medium';text-align:center;text-anchor:middle"
           id="path15" />
        <path
           d="m 251.25393,97.058485 q 0.5462,-0.05462 0.92854,0.327717 0.40964,0.355028 0.40964,0.901224 0,0.546196 -0.40964,0.901223 -0.38234,0.355027 -0.92854,0.327718 -0.76467,-0.08193 -1.42011,-0.136549 -0.65543,-0.02731 -1.28356,-0.02731 -1.09239,0 -2.53981,0.163859 -0.54619,0.02731 -0.95584,-0.327718 -0.38234,-0.355027 -0.38234,-0.901223 0,-0.546196 0.38234,-0.901224 0.40965,-0.382337 0.95584,-0.327717 0.2731,0.02731 0.57351,0.05462 0.3004,0.02731 0.60081,0.05462 h 0.0546 q 0.19117,0 0.19117,-0.218479 V 81.300731 q 0,-0.218479 -0.19117,-0.218479 -0.32772,0 -0.62812,0.02731 -0.30041,0.02731 -0.60082,0.08193 -0.54619,0.02731 -0.95584,-0.327717 -0.38234,-0.355028 -0.38234,-0.901224 0,-0.546196 0.38234,-0.901223 0.40965,-0.382337 0.95584,-0.327718 0.79199,0.08193 1.42011,0.136549 0.65544,0.02731 1.28356,0.02731 1.06508,0 2.53981,-0.163859 0.5462,-0.05462 0.92854,0.327718 0.40964,0.355027 0.40964,0.901223 0,0.546196 -0.40964,0.901224 -0.38234,0.355027 -0.92854,0.327717 -0.2731,-0.05462 -0.54619,-0.05462 -0.2731,-0.02731 -0.57351,-0.05462 h -0.0546 q -0.19117,0 -0.19117,0.218479 v 15.648514 q 0,0.218479 0.21848,0.218479 0.2731,0 0.57351,-0.02731 0.3004,-0.05462 0.5735,-0.08193 z"
           style="font-weight:500;font-family:'Kiwi Maru';-inkscape-font-specification:'Kiwi Maru Medium';text-align:center;text-anchor:middle"
           id="path17" />
        <path
           d="m 268.65029,93.426281 q 0.5462,0 0.92854,0.409647 0.40964,0.382338 0.38233,0.928534 -0.0273,0.600815 -0.0819,1.31087 -0.0546,0.682745 -0.10924,1.3928 -0.0273,0.764674 -0.57351,1.28356 -0.5462,0.518886 -1.28356,0.518886 h -8.30218 q -0.71005,0.02731 -1.42011,0.10924 -0.71005,0.109239 -1.33818,0.109239 -0.54619,0 -0.92853,-0.382337 -0.38234,-0.382338 -0.38234,-0.928534 0,-0.546196 0.38234,-0.928533 0.40965,-0.409647 0.92853,-0.409647 0.16386,0 0.30041,0.02731 0.16386,0.02731 0.43696,0.02731 h 0.0546 q 0.21847,0 0.21847,-0.218479 V 81.32804 q 0,-0.218478 -0.19116,-0.218478 -0.2731,0 -0.49158,0.05462 -0.19117,0.02731 -0.40965,0.02731 -0.51888,0 -0.87391,-0.355027 -0.35503,-0.355027 -0.35503,-0.873914 0,-0.546196 0.38234,-0.901223 0.40965,-0.382337 0.95584,-0.327718 0.79199,0.08193 1.36549,0.136549 0.60082,0.02731 1.1197,0.02731 0.5462,0 1.1197,-0.02731 0.60082,-0.05462 1.36549,-0.136549 0.5462,-0.05462 0.92854,0.327718 0.38233,0.355027 0.38233,0.901223 0,0.546196 -0.38233,0.901224 -0.38234,0.355027 -0.92854,0.327717 -0.3004,-0.05462 -0.62812,-0.05462 -0.32772,-0.02731 -0.65544,-0.05462 h -0.0546 q -0.19116,0 -0.19116,0.218479 v 15.293487 q 0,0.245788 0.24578,0.245788 h 6.71821 q 0.2731,0 0.21848,-0.245788 -0.0273,-0.518886 -0.0819,-1.010463 -0.0546,-0.491576 -0.0546,-0.901223 0,-0.518886 0.35503,-0.873913 0.38234,-0.382338 0.92853,-0.382338 z"
           style="font-weight:500;font-family:'Kiwi Maru';-inkscape-font-specification:'Kiwi Maru Medium';text-align:center;text-anchor:middle"
           id="path19" />
      </g>
      <g
         aria-label="tsuku.chiri@gmail.com"
         id="text13600"
         style="font-size:14.9052px;line-height:1.25;fill:#180a00;stroke-width:0.372631">
        <path
           d="m 148.8793,124.34781 q 0.29811,0 0.49187,0.20868 0.19377,0.20867 0.16396,0.50677 -0.10434,0.99865 -0.64092,1.52033 -0.52169,0.52169 -1.40109,0.52169 -0.5664,0 -1.01356,-0.2683 -0.44715,-0.26829 -0.71545,-0.73035 -0.25338,-0.46206 -0.25338,-1.02846 v -4.5908 q 0,-0.13415 -0.13415,-0.13415 h -0.80488 q -0.23848,0 -0.43225,-0.17886 -0.17886,-0.19377 -0.17886,-0.43225 0,-0.25339 0.17886,-0.41735 0.19377,-0.17886 0.43225,-0.17886 h 0.80488 q 0.13415,0 0.13415,-0.13415 v -2.45936 q 0,-0.26829 0.19376,-0.46206 0.19377,-0.19376 0.46207,-0.19376 0.26829,0 0.44715,0.19376 0.19377,0.19377 0.19377,0.46206 v 2.45936 q 0,0.13415 0.13415,0.13415 h 1.71409 q 0.25339,0 0.41735,0.17886 0.17886,0.16396 0.17886,0.41735 0,0.23848 -0.17886,0.43225 -0.16396,0.17886 -0.41735,0.17886 h -1.71409 q -0.13415,0 -0.13415,0.13415 v 4.5908 q 0,0.0447 0.0298,0.22358 0.0447,0.17886 0.17886,0.34282 0.14905,0.16395 0.47697,0.16395 0.35772,0 0.52168,-0.19376 0.17886,-0.19377 0.23848,-0.70055 0.0298,-0.25339 0.20868,-0.40244 0.17886,-0.16396 0.41734,-0.16396 z"
           style="font-weight:500;font-family:'Kiwi Maru';-inkscape-font-specification:'Kiwi Maru Medium';text-align:center;text-anchor:middle"
           id="path22" />
        <path
           d="m 152.68012,121.36677 q 0,0.34282 0.35772,0.53659 0.37263,0.19377 0.93903,0.31301 0.58131,0.11924 1.22223,0.26829 0.64092,0.13415 1.20732,0.38754 0.5813,0.25339 0.93903,0.70054 0.37263,0.44716 0.37263,1.17751 0,0.70055 -0.43225,1.23714 -0.41735,0.52168 -1.19242,0.80488 -0.76016,0.2981 -1.77372,0.2981 -0.5813,0 -1.17751,-0.14905 -0.59621,-0.13415 -1.10298,-0.38754 -0.50678,-0.25339 -0.81979,-0.61111 -0.31301,-0.35772 -0.31301,-0.78998 0,-0.40244 0.2832,-0.67073 0.2832,-0.2832 0.65583,-0.2832 0.41734,0 0.67073,0.29811 0.2683,0.28319 0.2683,0.65582 0,0.0447 0,0.0894 0,0.0447 -0.0149,0.0894 v 0.0298 q 0,0.0894 0.0894,0.13414 0.29811,0.13415 0.67074,0.23849 0.37263,0.10433 0.78997,0.10433 0.93903,0 1.52033,-0.31301 0.58131,-0.313 0.58131,-0.81978 0,-0.38754 -0.37263,-0.59621 -0.35773,-0.20867 -0.93903,-0.34282 -0.5664,-0.14905 -1.20732,-0.2981 -0.64093,-0.14906 -1.22223,-0.37263 -0.5664,-0.23849 -0.93903,-0.64093 -0.35772,-0.41734 -0.35772,-1.08808 0,-1.07317 0.84959,-1.68428 0.86451,-0.62602 2.2805,-0.62602 0.81979,0 1.4458,0.20867 0.62602,0.20867 0.98375,0.5813 0.37263,0.35773 0.37263,0.83469 0,0.0447 0,0.10434 0,0.0447 -0.0149,0.0894 -0.0447,0.32792 -0.31301,0.55149 -0.26829,0.22358 -0.61111,0.22358 -0.43225,0 -0.71545,-0.32791 -0.26829,-0.34282 -0.20867,-0.76017 v -0.0298 q 0,-0.0894 -0.0894,-0.13414 -0.19377,-0.0596 -0.40244,-0.0894 -0.19377,-0.0298 -0.44716,-0.0298 -0.78998,0 -1.31166,0.29811 -0.52168,0.2981 -0.52168,0.78997 z"
           style="font-weight:500;font-family:'Kiwi Maru';-inkscape-font-specification:'Kiwi Maru Medium';text-align:center;text-anchor:middle"
           id="path24" />
        <path
           d="m 167.5108,125.80852 q 0.29811,-0.0298 0.50678,0.16396 0.20867,0.17886 0.20867,0.47697 0,0.2832 -0.22358,0.47696 -0.20867,0.19377 -0.49187,0.16396 -0.20867,-0.0298 -0.44715,-0.0745 -0.23849,-0.0298 -0.44716,-0.0447 -0.40244,-0.0149 -0.70054,-0.29811 -0.2832,-0.28319 -0.2832,-0.68563 0,-0.0745 -0.0447,-0.0745 -0.0596,0 -0.11924,0.0596 -1.02846,1.11789 -2.26559,1.11789 -1.07318,0 -1.84825,-0.55149 -0.34282,-0.25339 -0.68564,-0.73036 -0.32791,-0.49187 -0.32791,-1.29675 v -4.18836 q 0,-0.11924 -0.10434,-0.11924 -0.14905,0 -0.2981,0.0298 -0.13415,0.0149 -0.2981,0.0149 -0.23849,0 -0.41735,-0.16395 -0.17886,-0.17887 -0.17886,-0.44716 0,-0.26829 0.19377,-0.44716 0.19376,-0.17886 0.46206,-0.14905 0.34282,0.0298 0.53658,0.0447 0.19377,0 0.41735,0.0149 0.40244,0 0.68564,0.29811 0.2981,0.2832 0.2981,0.68564 v 4.42684 q 0,0.46206 0.19377,0.73036 0.20867,0.25338 0.47697,0.37263 0.2832,0.11924 0.53658,0.14905 0.25339,0.0298 0.35773,0.0298 0.65583,0 1.28185,-0.43225 0.62601,-0.43225 1.10298,-1.20732 0.0447,-0.0894 0.0447,-0.16396 v -3.66668 q 0,-0.11924 -0.10434,-0.11924 -0.14905,0 -0.2981,0.0298 -0.14906,0.0149 -0.29811,0.0149 -0.23848,0 -0.41734,-0.16395 -0.17887,-0.17887 -0.17887,-0.44716 0,-0.26829 0.19377,-0.44716 0.19377,-0.17886 0.46206,-0.14905 0.34282,0.0298 0.53659,0.0447 0.19377,0 0.41735,0.0149 0.40244,0 0.68563,0.29811 0.29811,0.2832 0.29811,0.68564 v 5.66397 q 0,0.16396 0.14905,0.13415 z"
           style="font-weight:500;font-family:'Kiwi Maru';-inkscape-font-specification:'Kiwi Maru Medium';text-align:center;text-anchor:middle"
           id="path26" />
        <path
           d="m 177.09483,125.88305 q 0.25339,0 0.43225,0.17886 0.17887,0.16396 0.17887,0.43225 0,0.2683 -0.19377,0.43225 -0.19377,0.17887 -0.47697,0.16396 -0.46206,-0.0447 -0.73035,-0.0596 -0.25339,-0.0149 -0.49188,-0.0149 -0.26829,0 -0.52168,0.0149 -0.25339,0.0298 -0.68564,0.0596 -0.2832,0.0149 -0.47696,-0.16396 -0.19377,-0.16395 -0.19377,-0.43225 0,-0.2832 0.19377,-0.46206 0.19376,-0.17886 0.47696,-0.14905 0.0149,0 0.0149,-0.0298 0,-0.0447 -0.0447,-0.13415 l -1.66938,-2.42955 q -0.0745,-0.13414 -0.17886,-0.0298 l -0.76017,0.64093 q -0.0745,0.0745 -0.0745,0.16395 v 1.72901 q 0,0.13414 0.13414,0.11924 l 0.43225,-0.0298 q 0.2832,-0.0298 0.47697,0.14905 0.19377,0.17886 0.19377,0.46206 0,0.2683 -0.19377,0.43225 -0.19377,0.17887 -0.47697,0.16396 -0.46206,-0.0447 -0.73035,-0.0596 -0.25339,-0.0149 -0.47697,-0.0149 -0.16395,0 -0.2981,0 -0.13415,0.0149 -0.34282,0.0298 -0.19377,0.0149 -0.5813,0.0447 -0.2832,0.0149 -0.47697,-0.16396 -0.19377,-0.16395 -0.19377,-0.43225 0,-0.2832 0.19377,-0.46206 0.19377,-0.17886 0.47697,-0.14905 l 0.43225,0.0298 h 0.0298 q 0.10433,0 0.10433,-0.11924 v -8.82388 q 0,-0.11924 -0.10433,-0.11924 -0.13415,0 -0.2683,0.0298 -0.11924,0.0149 -0.26829,0.0149 -0.23848,0 -0.41734,-0.16395 -0.17887,-0.17887 -0.17887,-0.43225 0,-0.2832 0.19377,-0.46207 0.19377,-0.17886 0.47697,-0.14905 0.22358,0.0149 0.44715,0.0447 0.23849,0.0149 0.43225,0.0298 0.40244,0.0149 0.68564,0.2981 0.29811,0.2832 0.29811,0.68564 v 5.48512 q 0,0.0745 0.0447,0.10433 0.0596,0.0298 0.11924,-0.0298 l 2.25069,-1.90786 q 0.0745,-0.0596 0.0894,-0.10434 0.0298,-0.0596 -0.0149,-0.0596 -0.0596,0 -0.10434,0.0149 -0.0298,0 -0.10434,0 -0.25339,0 -0.44715,-0.17886 -0.17887,-0.17886 -0.17887,-0.43225 0,-0.26829 0.19377,-0.44716 0.20867,-0.19376 0.47697,-0.16395 0.47696,0.0447 0.73035,0.0745 0.25339,0.0149 0.47697,0.0149 0.2832,0 0.52168,-0.0149 0.25339,-0.0298 0.70055,-0.0745 0.26829,-0.0298 0.46206,0.16395 0.20867,0.17887 0.20867,0.44716 0,0.26829 -0.20867,0.44716 -0.19377,0.17886 -0.46206,0.16395 -0.0894,0 -0.14906,-0.0149 -0.10433,0 -0.16395,0.0596 l -2.41465,2.02711 q -0.10433,0.10433 -0.0298,0.19376 l 2.2805,3.33877 q 0.0745,0.0894 0.16396,0.0894 0.19376,-0.0298 0.38753,-0.0447 0.19377,-0.0149 0.37263,-0.0149 z"
           style="font-weight:500;font-family:'Kiwi Maru';-inkscape-font-specification:'Kiwi Maru Medium';text-align:center;text-anchor:middle"
           id="path28" />
        <path
           d="m 186.99189,125.80852 q 0.2981,-0.0298 0.50677,0.16396 0.20868,0.17886 0.20868,0.47697 0,0.2832 -0.22358,0.47696 -0.20868,0.19377 -0.49187,0.16396 -0.20868,-0.0298 -0.44716,-0.0745 -0.23848,-0.0298 -0.44716,-0.0447 -0.40244,-0.0149 -0.70054,-0.29811 -0.2832,-0.28319 -0.2832,-0.68563 0,-0.0745 -0.0447,-0.0745 -0.0596,0 -0.11924,0.0596 -1.02846,1.11789 -2.26559,1.11789 -1.07317,0 -1.84824,-0.55149 -0.34282,-0.25339 -0.68564,-0.73036 -0.32792,-0.49187 -0.32792,-1.29675 v -4.18836 q 0,-0.11924 -0.10433,-0.11924 -0.14905,0 -0.29811,0.0298 -0.13414,0.0149 -0.2981,0.0149 -0.23848,0 -0.41735,-0.16395 -0.17886,-0.17887 -0.17886,-0.44716 0,-0.26829 0.19377,-0.44716 0.19377,-0.17886 0.46206,-0.14905 0.34282,0.0298 0.53659,0.0447 0.19377,0 0.41734,0.0149 0.40244,0 0.68564,0.29811 0.29811,0.2832 0.29811,0.68564 v 4.42684 q 0,0.46206 0.19376,0.73036 0.20868,0.25338 0.47697,0.37263 0.2832,0.11924 0.53659,0.14905 0.25339,0.0298 0.35772,0.0298 0.65583,0 1.28185,-0.43225 0.62602,-0.43225 1.10298,-1.20732 0.0447,-0.0894 0.0447,-0.16396 v -3.66668 q 0,-0.11924 -0.10434,-0.11924 -0.14905,0 -0.2981,0.0298 -0.14905,0.0149 -0.2981,0.0149 -0.23849,0 -0.41735,-0.16395 -0.17886,-0.17887 -0.17886,-0.44716 0,-0.26829 0.19377,-0.44716 0.19376,-0.17886 0.46206,-0.14905 0.34282,0.0298 0.53658,0.0447 0.19377,0 0.41735,0.0149 0.40244,0 0.68564,0.29811 0.2981,0.2832 0.2981,0.68564 v 5.66397 q 0,0.16396 0.14905,0.13415 z"
           style="font-weight:500;font-family:'Kiwi Maru';-inkscape-font-specification:'Kiwi Maru Medium';text-align:center;text-anchor:middle"
           id="path30" />
        <path
           d="m 189.54066,127.80582 q -0.44715,0 -0.77507,-0.32791 -0.31301,-0.31301 -0.31301,-0.76017 0,-0.44716 0.31301,-0.76016 0.32792,-0.32792 0.77507,-0.32792 0.44716,0 0.76017,0.32792 0.32791,0.313 0.32791,0.76016 0,0.44716 -0.32791,0.76017 -0.31301,0.32791 -0.76017,0.32791 z"
           style="font-weight:500;font-family:'Kiwi Maru';-inkscape-font-specification:'Kiwi Maru Medium';text-align:center;text-anchor:middle"
           id="path32" />
        <path
           d="m 199.21415,124.83969 q 0.20867,0.23848 0.20867,0.50677 0,0.23849 -0.17886,0.44716 -0.5515,0.61111 -1.32657,0.95393 -0.77507,0.34282 -1.60976,0.34282 -0.96884,0 -1.74391,-0.34282 -0.76016,-0.35772 -1.29675,-0.93903 -0.52168,-0.5813 -0.80488,-1.29675 -0.26829,-0.71545 -0.26829,-1.4458 0,-1.1477 0.50677,-2.05692 0.52169,-0.90922 1.40109,-1.44581 0.89431,-0.53658 2.0122,-0.53658 1.75882,0 2.80218,1.22222 0.53659,0.62602 0.53659,1.20732 0,0.2683 -0.13415,0.52169 -0.26829,0.47696 -0.81978,0.47696 -0.40244,0 -0.67074,-0.2832 -0.26829,-0.2981 -0.26829,-0.68563 0,-0.23849 0.14905,-0.49188 0.0596,-0.10433 -0.0149,-0.17886 -0.49188,-0.5813 -1.57996,-0.5813 -0.76016,0 -1.35637,0.37263 -0.59621,0.35772 -0.93903,0.99865 -0.32791,0.62602 -0.32791,1.46071 0,0.77507 0.35772,1.41599 0.37263,0.62602 0.99865,0.99865 0.62602,0.35772 1.416,0.35772 1.17751,0 2.11653,-0.98374 0.17887,-0.20867 0.43226,-0.20867 0.23848,0 0.40244,0.19377 z"
           style="font-weight:500;font-family:'Kiwi Maru';-inkscape-font-specification:'Kiwi Maru Medium';text-align:center;text-anchor:middle"
           id="path34" />
        <path
           d="m 208.81309,125.88305 q 0.26829,-0.0298 0.46206,0.14905 0.19376,0.17886 0.19376,0.46206 0,0.2683 -0.19376,0.43225 -0.19377,0.17887 -0.46206,0.16396 -0.46207,-0.0447 -0.73036,-0.0596 -0.26829,-0.0149 -0.49187,-0.0149 -0.2832,0 -0.53659,0.0149 -0.23848,0.0298 -0.68564,0.0596 -0.26829,0.0149 -0.46206,-0.16396 -0.19377,-0.16395 -0.19377,-0.43225 0,-0.2832 0.19377,-0.46206 0.19377,-0.17886 0.46206,-0.14905 l 0.43225,0.0298 h 0.0298 q 0.10434,0 0.10434,-0.11924 v -4.03931 q 0,-0.73036 -0.22358,-1.04337 -0.22358,-0.313 -0.73035,-0.313 -1.20732,0 -2.69784,1.35637 -0.0745,0.0745 -0.0745,0.17886 v 3.86045 q 0,0.13414 0.13415,0.11924 l 0.43225,-0.0298 q 0.26829,-0.0298 0.46206,0.14905 0.19377,0.17886 0.19377,0.46206 0,0.2683 -0.19377,0.43225 -0.19377,0.17887 -0.46206,0.16396 -0.46206,-0.0447 -0.73036,-0.0596 -0.25338,-0.0149 -0.49187,-0.0149 -0.26829,0 -0.52168,0.0149 -0.25339,0.0298 -0.70054,0.0596 -0.2683,0.0149 -0.46207,-0.16396 -0.19376,-0.16395 -0.19376,-0.43225 0,-0.2832 0.19376,-0.46206 0.19377,-0.17886 0.46207,-0.14905 l 0.44715,0.0298 q 0.13415,0 0.13415,-0.11924 v -8.82388 q 0,-0.11924 -0.10434,-0.11924 -0.14905,0 -0.2832,0.0298 -0.13414,0.0149 -0.2832,0.0149 -0.23848,0 -0.41734,-0.16395 -0.17886,-0.17887 -0.17886,-0.44716 0,-0.26829 0.19376,-0.44716 0.19377,-0.17886 0.46207,-0.14905 0.20867,0.0149 0.44715,0.0447 0.23848,0.0149 0.47697,0.0298 0.40244,0.0149 0.68564,0.2981 0.2981,0.2832 0.2981,0.68564 v 3.50272 q 0,0.0894 0.0447,0.11925 0.0596,0.0149 0.11924,-0.0447 1.4458,-1.29675 2.78727,-1.29675 2.08673,0 2.08673,2.74255 v 4.02441 q 0,0.13414 0.13415,0.11924 z"
           style="font-weight:500;font-family:'Kiwi Maru';-inkscape-font-specification:'Kiwi Maru Medium';text-align:center;text-anchor:middle"
           id="path36" />
        <path
           d="m 212.74807,117.90877 q -0.40244,0 -0.70055,-0.2832 -0.28319,-0.29811 -0.28319,-0.70055 0,-0.41734 0.28319,-0.70054 0.29811,-0.2832 0.70055,-0.2832 0.40244,0 0.68564,0.2832 0.2981,0.2832 0.2981,0.70054 0,0.40244 -0.2981,0.70055 -0.2832,0.2832 -0.68564,0.2832 z m -1.28185,9.19651 q -0.2981,0.0149 -0.52168,-0.17887 -0.20867,-0.19376 -0.20867,-0.49187 0,-0.2981 0.20867,-0.49187 0.22358,-0.20867 0.52168,-0.17886 0.22358,0.0447 0.49187,0.0447 h 0.0298 q 0.10434,0 0.10434,-0.11924 v -5.24663 q 0,-0.11924 -0.10434,-0.11924 -0.26829,0 -0.52168,0.0447 -0.2981,0.0149 -0.52168,-0.17887 -0.20867,-0.19376 -0.20867,-0.49187 0,-0.2981 0.22358,-0.49187 0.22357,-0.20867 0.50677,-0.17886 0.40244,0.0298 0.5664,0.0596 0.17886,0.0149 0.23848,0.0149 0.0596,0 0.14905,0 0.40245,0 0.68564,0.29811 0.29811,0.2832 0.29811,0.68564 v 5.60435 q 0,0.11924 0.10433,0.11924 0.2832,0 0.52169,-0.0447 0.2981,-0.0298 0.50677,0.17886 0.20868,0.19377 0.20868,0.49187 0,0.29811 -0.20868,0.49187 -0.20867,0.19377 -0.50677,0.17887 -0.29811,-0.0298 -0.64093,-0.0596 -0.32791,-0.0298 -0.64092,-0.0298 -0.31301,0 -0.65583,0.0298 -0.32791,0.0298 -0.62602,0.0596 z"
           style="font-weight:500;font-family:'Kiwi Maru';-inkscape-font-specification:'Kiwi Maru Medium';text-align:center;text-anchor:middle"
           id="path38" />
        <path
           d="m 223.00286,119.98059 q 0,0.37263 -0.2683,0.65583 -0.26829,0.26829 -0.67073,0.26829 -0.26829,0 -0.49187,-0.13414 -0.20867,-0.14906 -0.34282,-0.35773 -0.0447,-0.10434 -0.16396,-0.0894 -0.70054,0.10434 -1.34147,0.83469 -0.64092,0.71545 -0.98374,1.80353 -0.0298,0.0596 -0.0298,0.16396 v 2.68293 q 0,0.11924 0.10434,0.11924 0.16395,0 0.2981,-0.0149 0.14905,-0.0298 0.2981,-0.0298 0.25339,0 0.43225,0.17886 0.17887,0.16396 0.17887,0.43225 0,0.2683 -0.20868,0.44716 -0.19376,0.17886 -0.46206,0.16396 -0.46206,-0.0447 -0.74526,-0.0745 -0.26829,-0.0149 -0.53658,-0.0149 -0.31301,0 -0.58131,0.0149 -0.26829,0.0298 -0.70054,0.0745 -0.26829,0.0149 -0.47697,-0.16396 -0.19377,-0.17886 -0.19377,-0.44716 0,-0.26829 0.17887,-0.43225 0.17886,-0.17886 0.43225,-0.17886 0.11924,0 0.25339,0.0149 0.14905,0.0149 0.2981,0.0298 h 0.0298 q 0.10434,0 0.10434,-0.11924 v -5.36587 q 0,-0.11924 -0.10434,-0.11924 -0.26829,0 -0.52168,0.0447 -0.29811,0.0149 -0.52168,-0.17887 -0.20868,-0.19376 -0.20868,-0.49187 0,-0.2981 0.22358,-0.49187 0.22358,-0.19377 0.50678,-0.16396 0.2981,0.0298 0.46206,0.0447 0.17886,0.0149 0.34282,0.0149 0.17886,0 0.47697,0 0.26829,0 0.44715,0.19377 0.19377,0.19377 0.19377,0.44716 v 0.61111 q 0,0.0894 0.0447,0.10434 0.0596,0.0149 0.11924,-0.0596 0.98374,-1.26695 2.41464,-1.44581 0.10434,-0.0149 0.19377,-0.0149 0.10433,-0.0149 0.20867,-0.0149 0.5664,0 0.93903,0.26829 0.37263,0.2683 0.37263,0.78998 z"
           style="font-weight:500;font-family:'Kiwi Maru';-inkscape-font-specification:'Kiwi Maru Medium';text-align:center;text-anchor:middle"
           id="path40" />
        <path
           d="m 225.93918,117.90877 q -0.40244,0 -0.70055,-0.2832 -0.2832,-0.29811 -0.2832,-0.70055 0,-0.41734 0.2832,-0.70054 0.29811,-0.2832 0.70055,-0.2832 0.40244,0 0.68564,0.2832 0.2981,0.2832 0.2981,0.70054 0,0.40244 -0.2981,0.70055 -0.2832,0.2832 -0.68564,0.2832 z m -1.28185,9.19651 q -0.2981,0.0149 -0.52168,-0.17887 -0.20867,-0.19376 -0.20867,-0.49187 0,-0.2981 0.20867,-0.49187 0.22358,-0.20867 0.52168,-0.17886 0.22358,0.0447 0.49187,0.0447 h 0.0298 q 0.10434,0 0.10434,-0.11924 v -5.24663 q 0,-0.11924 -0.10434,-0.11924 -0.26829,0 -0.52168,0.0447 -0.2981,0.0149 -0.52168,-0.17887 -0.20867,-0.19376 -0.20867,-0.49187 0,-0.2981 0.22357,-0.49187 0.22358,-0.20867 0.50678,-0.17886 0.40244,0.0298 0.5664,0.0596 0.17886,0.0149 0.23848,0.0149 0.0596,0 0.14905,0 0.40244,0 0.68564,0.29811 0.29811,0.2832 0.29811,0.68564 v 5.60435 q 0,0.11924 0.10433,0.11924 0.2832,0 0.52168,-0.0447 0.29811,-0.0298 0.50678,0.17886 0.20867,0.19377 0.20867,0.49187 0,0.29811 -0.20867,0.49187 -0.20867,0.19377 -0.50678,0.17887 -0.2981,-0.0298 -0.64092,-0.0596 -0.32791,-0.0298 -0.64092,-0.0298 -0.31301,0 -0.65583,0.0298 -0.32792,0.0298 -0.62602,0.0596 z"
           style="font-weight:500;font-family:'Kiwi Maru';-inkscape-font-specification:'Kiwi Maru Medium';text-align:center;text-anchor:middle"
           id="path42" />
        <path
           d="m 237.35656,119.89116 -0.84959,2.92142 q -0.0894,0.31301 -0.0894,0.49187 0,0.26829 0.19376,0.26829 0.22358,0 0.68564,-0.31301 0.34282,-0.25338 0.64093,-0.68564 0.31301,-0.43225 0.47696,-0.96883 0.0894,-0.2832 0.14906,-0.62602 0.0596,-0.35773 0.0596,-0.74526 0,-0.53659 -0.16396,-1.07318 -0.16396,-0.55149 -0.5664,-1.01355 -0.38753,-0.46206 -1.08808,-0.73035 -0.70054,-0.2832 -1.77372,-0.2832 -1.31165,0 -2.35502,0.61111 -1.02846,0.61111 -1.66938,1.729 -0.62602,1.10299 -0.76017,2.5786 -0.0149,0.0745 -0.0149,0.16396 0,0.0745 0,0.14905 0,1.05827 0.50678,1.89296 0.50677,0.83469 1.38618,1.32657 0.89431,0.47696 2.02711,0.47696 0.8794,0 1.57995,-0.22358 0.71545,-0.22357 1.26694,-0.56639 0.55149,-0.35773 0.93903,-0.73036 0.38753,-0.37263 0.62602,-0.67073 0.19376,-0.19377 0.44715,-0.19377 0.19377,0 0.31301,0.10434 0.26829,0.14905 0.26829,0.44715 0,0.16396 -0.11924,0.32792 -0.44715,0.56639 -1.25203,1.17751 -0.80489,0.61111 -1.87806,1.01355 -1.07317,0.41735 -2.34012,0.41735 -1.05827,0.0149 -1.96748,-0.38754 -0.90922,-0.38753 -1.57995,-1.08808 -0.67074,-0.71545 -1.01356,-1.65448 -0.34282,-0.95393 -0.26829,-2.0271 0.0894,-1.46071 0.61111,-2.5637 0.53659,-1.11789 1.35638,-1.86315 0.83469,-0.74526 1.83334,-1.11789 0.99864,-0.38753 2.0271,-0.38753 1.50543,0 2.59351,0.5664 1.08808,0.55149 1.65447,1.55014 0.5664,0.98374 0.49188,2.26559 -0.0745,1.07317 -0.46207,1.95258 -0.37263,0.8794 -0.99864,1.46071 -0.61112,0.5813 -1.40109,0.76016 -0.0894,0.0149 -0.17886,0.0298 -0.0745,0 -0.14906,0 -0.77507,0 -1.07317,-0.70054 -0.0596,-0.13415 -0.17886,-0.0447 -0.37263,0.32792 -0.78998,0.47697 -0.40244,0.14905 -0.80488,0.14905 -0.53659,0 -1.01355,-0.26829 -0.46206,-0.2683 -0.74526,-0.77507 -0.2832,-0.50678 -0.2832,-1.19242 0,-0.25339 0.0447,-0.52168 0.16396,-1.01355 0.59621,-1.63957 0.43225,-0.64093 0.99865,-0.93903 0.5813,-0.31301 1.16261,-0.31301 0.47696,0 0.90921,0.19377 0.43225,0.17886 0.74526,0.55149 0.0447,0.0447 0.0894,0.0447 0.0745,0 0.0894,-0.0894 v -0.0149 q 0.0596,-0.17886 0.20868,-0.2832 0.14905,-0.11924 0.32791,-0.11924 0.22358,0 0.38754,0.17886 0.16395,0.17886 0.16395,0.38754 0,0.0596 -0.0298,0.14905 z m -4.47156,1.98239 q -0.0447,0.22358 -0.0447,0.41735 0,0.5813 0.2832,0.84959 0.2981,0.2683 0.71545,0.2683 0.38753,0 0.80488,-0.20868 0.41734,-0.22357 0.73035,-0.62602 0.0298,-0.0447 0.0447,-0.0745 0.0298,-0.0298 0.0447,-0.0745 l 0.38754,-1.35637 q 0.0298,-0.11924 0.0149,-0.14905 -0.16395,-0.47697 -0.52168,-0.73036 -0.35772,-0.25339 -0.77507,-0.25339 -0.52168,0 -1.02846,0.46207 -0.49187,0.46206 -0.65583,1.47561 z"
           style="font-weight:500;font-family:'Kiwi Maru';-inkscape-font-specification:'Kiwi Maru Medium';text-align:center;text-anchor:middle"
           id="path44" />
        <path
           d="m 248.95282,119.04156 q 0.2832,-0.0298 0.49187,0.14905 0.20867,0.17887 0.20867,0.47697 0,0.2832 -0.20867,0.47697 -0.20867,0.19376 -0.49187,0.16395 l -0.50678,-0.0745 h -0.0298 q -0.11924,0 -0.11924,0.13415 v 6.06641 q 0,0.64093 -0.20867,1.37128 -0.20867,0.74526 -0.65583,1.40109 -0.44716,0.65583 -1.1477,1.07317 -0.70055,0.41735 -1.66938,0.41735 -1.66939,0 -2.5637,-1.08808 -0.23848,-0.2981 -0.35772,-0.62602 -0.11924,-0.31301 -0.11924,-0.61111 0,-0.47697 0.25338,-0.81979 0.2683,-0.32791 0.76017,-0.32791 0.46206,0 0.73035,0.31301 0.2683,0.31301 0.2683,0.70054 0,0.41735 -0.2832,0.70055 -0.0894,0.0894 -0.0149,0.19376 0.35773,0.40244 1.32657,0.40244 0.83469,0 1.35637,-0.47696 0.52168,-0.46206 0.77507,-1.17751 0.25339,-0.71545 0.25339,-1.44581 v -0.14905 q 0,-0.0745 -0.0447,-0.10434 -0.0447,-0.0298 -0.11924,0.0298 -0.84959,0.76017 -1.95258,0.76017 -0.95393,0 -1.68429,-0.34282 -0.71545,-0.35773 -1.20732,-0.93903 -0.47696,-0.5813 -0.71545,-1.28185 -0.23848,-0.70054 -0.23848,-1.40108 0,-0.68564 0.22358,-1.38619 0.22357,-0.70054 0.68564,-1.28185 0.46206,-0.5813 1.1477,-0.93902 0.70054,-0.35773 1.63957,-0.35773 0.61111,0 1.13279,0.19377 0.53659,0.19377 0.96884,0.53659 0.0745,0.0596 0.11924,0.0596 0.0447,0 0.0447,-0.0447 0,-0.26829 0.19377,-0.46206 0.19376,-0.19377 0.46206,-0.19377 h 0.55149 q 0.0447,0 0.20867,-0.0149 0.16396,-0.0298 0.32792,-0.0447 0.16395,-0.0298 0.20867,-0.0298 z m -4.08402,6.66263 q 0.65582,0 1.17751,-0.23849 0.53658,-0.25338 0.89431,-0.70054 0.0596,-0.0745 0.0596,-0.16396 v -3.26424 q 0,-0.0894 -0.0596,-0.16395 -0.81979,-0.89432 -2.08673,-0.89432 -0.73035,0 -1.29675,0.35773 -0.55149,0.34282 -0.8645,0.95393 -0.31301,0.61111 -0.31301,1.40109 0,0.77507 0.32791,1.38618 0.32792,0.61112 0.89431,0.96884 0.5664,0.35773 1.26695,0.35773 z"
           style="font-weight:500;font-family:'Kiwi Maru';-inkscape-font-specification:'Kiwi Maru Medium';text-align:center;text-anchor:middle"
           id="path46" />
        <path
           d="m 263.69405,125.88305 q 0.2683,-0.0298 0.46206,0.14905 0.19377,0.17886 0.19377,0.46206 0,0.2683 -0.19377,0.44716 -0.19376,0.17886 -0.46206,0.16396 -0.46206,-0.0447 -0.73035,-0.0745 -0.25339,-0.0149 -0.49187,-0.0149 -0.2683,0 -0.52169,0.0149 -0.25339,0.0298 -0.70054,0.0745 -0.26829,0.0149 -0.46206,-0.16396 -0.19377,-0.17886 -0.19377,-0.44716 0,-0.2832 0.19377,-0.46206 0.19377,-0.17886 0.46206,-0.14905 l 0.43225,0.0298 h 0.0298 q 0.10434,0 0.10434,-0.11924 v -3.78592 q 0,-0.64093 -0.17887,-1.05827 -0.16395,-0.43225 -0.46206,-0.50678 -0.10433,-0.0298 -0.20867,-0.0447 -0.10434,-0.0149 -0.20867,-0.0149 -1.04337,0 -2.41465,1.4309 -0.0745,0.0745 -0.0745,0.16396 v 3.81573 q 0,0.11924 0.13415,0.11924 l 0.44715,-0.0298 q 0.2832,-0.0298 0.47697,0.14905 0.19377,0.17886 0.19377,0.46206 0,0.2683 -0.20868,0.44716 -0.19376,0.17886 -0.46206,0.16396 -0.46206,-0.0447 -0.73035,-0.0745 -0.25339,-0.0149 -0.47697,-0.0149 -0.2832,0 -0.53659,0.0149 -0.23848,0.0298 -0.68564,0.0745 -0.26829,0.0149 -0.47696,-0.16396 -0.19377,-0.17886 -0.19377,-0.44716 0,-0.2832 0.19377,-0.46206 0.19377,-0.17886 0.47696,-0.14905 l 0.44716,0.0298 q 0.13415,0 0.13415,-0.11924 v -3.78592 q 0,-1.38619 -0.5664,-1.57995 -0.16396,-0.0596 -0.35773,-0.0596 -0.50677,0 -1.13279,0.38753 -0.62602,0.37263 -1.32656,1.08808 -0.0745,0.0745 -0.0745,0.16396 v 3.78592 q 0,0.11924 0.13415,0.11924 l 0.44715,-0.0298 q 0.2683,-0.0298 0.46206,0.14905 0.19377,0.17886 0.19377,0.46206 0,0.2683 -0.19377,0.44716 -0.19376,0.17886 -0.46206,0.16396 -0.46206,-0.0447 -0.73035,-0.0745 -0.25339,-0.0149 -0.49187,-0.0149 -0.2683,0 -0.52169,0.0149 -0.25338,0.0298 -0.70054,0.0745 -0.26829,0.0149 -0.46206,-0.16396 -0.19377,-0.17886 -0.19377,-0.44716 0,-0.2832 0.19377,-0.46206 0.19377,-0.17886 0.46206,-0.14905 l 0.44716,0.0298 q 0.13414,0 0.13414,-0.11924 v -5.4404 q 0,-0.11924 -0.10433,-0.11924 -0.14906,0 -0.2832,0.0149 -0.13415,0.0149 -0.2683,0.0447 -0.28319,0.0298 -0.49187,-0.14905 -0.20867,-0.19377 -0.20867,-0.47697 0,-0.2981 0.20867,-0.47697 0.20868,-0.17886 0.49187,-0.14905 0.29811,0.0596 0.74526,0.0894 h 0.5515 q 0.26829,0 0.44715,0.19377 0.19377,0.17886 0.19377,0.44716 v 0.34282 q 0,0.0745 0.0447,0.10433 0.0596,0.0298 0.11924,-0.0298 1.32656,-1.1626 2.50407,-1.1626 0.50678,0 0.95393,0.22358 0.59621,0.28319 0.86451,1.07317 0.0745,0.14905 0.17886,0.0447 1.41599,-1.34147 2.68293,-1.34147 0.5515,0 1.02846,0.23848 0.49187,0.23848 0.74526,0.73036 0.25339,0.47696 0.34282,1.02845 0.10434,0.5515 0.10434,0.98375 v 3.78592 q 0,0.11924 0.13415,0.11924 z"
           style="font-weight:500;font-family:'Kiwi Maru';-inkscape-font-specification:'Kiwi Maru Medium';text-align:center;text-anchor:middle"
           id="path48" />
        <path
           d="m 272.42851,125.79362 q 0.0447,-0.0149 0.13415,-0.0149 0.25339,0 0.43225,0.19377 0.17886,0.17886 0.17886,0.46206 0,0.31301 -0.22358,0.50678 -0.22358,0.20867 -0.52168,0.14905 -0.22358,-0.0596 -0.44716,-0.0894 -0.20867,-0.0149 -0.40244,-0.0298 -0.2981,0 -0.53658,-0.16396 -0.23849,-0.16396 -0.35773,-0.41734 -0.0745,-0.13415 -0.17886,-0.0447 -0.50678,0.37263 -1.08808,0.55149 -0.5813,0.19377 -1.37128,0.19377 -1.04336,0 -1.7141,-0.59621 -0.67073,-0.61111 -0.67073,-1.56504 0,-0.73036 0.35772,-1.28185 0.35773,-0.5664 0.98375,-0.87941 0.64092,-0.32791 1.49052,-0.32791 0.44715,0 0.92412,0.0894 0.49187,0.0894 1.01355,0.2981 0.0149,0 0.0298,0.0149 0.0149,0 0.0298,0 0.10434,0 0.10434,-0.11924 v -0.46206 q 0,-1.01356 -0.52168,-1.50543 -0.50678,-0.50678 -1.22223,-0.50678 -0.22358,0 -0.46206,0.0596 -0.22358,0.0447 -0.46206,0.13415 -0.11924,0.0447 -0.0745,0.16396 0.0149,0.0596 0.0149,0.10433 0.0149,0.0447 0.0149,0.10434 0,0.37263 -0.26829,0.67074 -0.26829,0.28319 -0.68564,0.28319 -0.43225,0 -0.70054,-0.2981 -0.25339,-0.31301 -0.25339,-0.70054 0,-0.19377 0.0745,-0.38754 0.0745,-0.19377 0.22358,-0.35772 0.41735,-0.47697 1.02846,-0.73036 0.62602,-0.26829 1.32656,-0.26829 1.55014,0 2.39974,0.84959 0.8496,0.83469 0.8496,2.38484 v 3.47291 q 0,0.13414 0.10433,0.13414 0.11925,0 0.22358,-0.0298 0.11924,-0.0298 0.22358,-0.0447 z m -4.38213,0.0447 q 0.81979,-0.0298 1.37128,-0.26829 0.5664,-0.23848 1.11789,-0.78998 0.0596,-0.0745 0.0596,-0.16395 v -0.32792 q 0,-0.10433 -0.0894,-0.14905 -0.31301,-0.16396 -0.77507,-0.32791 -0.44716,-0.16396 -1.20732,-0.16396 -0.76017,0 -1.19242,0.34282 -0.43225,0.32791 -0.43225,0.93903 0,0.40244 0.31301,0.65583 0.32791,0.25338 0.83469,0.25338 z"
           style="font-weight:500;font-family:'Kiwi Maru';-inkscape-font-specification:'Kiwi Maru Medium';text-align:center;text-anchor:middle"
           id="path50" />
        <path
           d="m 276.438,117.90877 q -0.40244,0 -0.70054,-0.2832 -0.2832,-0.29811 -0.2832,-0.70055 0,-0.41734 0.2832,-0.70054 0.2981,-0.2832 0.70054,-0.2832 0.40244,0 0.68564,0.2832 0.29811,0.2832 0.29811,0.70054 0,0.40244 -0.29811,0.70055 -0.2832,0.2832 -0.68564,0.2832 z m -1.28184,9.19651 q -0.29811,0.0149 -0.52169,-0.17887 -0.20867,-0.19376 -0.20867,-0.49187 0,-0.2981 0.20867,-0.49187 0.22358,-0.20867 0.52169,-0.17886 0.22357,0.0447 0.49187,0.0447 h 0.0298 q 0.10433,0 0.10433,-0.11924 v -5.24663 q 0,-0.11924 -0.10433,-0.11924 -0.2683,0 -0.52168,0.0447 -0.29811,0.0149 -0.52169,-0.17887 -0.20867,-0.19376 -0.20867,-0.49187 0,-0.2981 0.22358,-0.49187 0.22358,-0.20867 0.50678,-0.17886 0.40244,0.0298 0.56639,0.0596 0.17887,0.0149 0.23849,0.0149 0.0596,0 0.14905,0 0.40244,0 0.68564,0.29811 0.2981,0.2832 0.2981,0.68564 v 5.60435 q 0,0.11924 0.10434,0.11924 0.2832,0 0.52168,-0.0447 0.2981,-0.0298 0.50678,0.17886 0.20867,0.19377 0.20867,0.49187 0,0.29811 -0.20867,0.49187 -0.20868,0.19377 -0.50678,0.17887 -0.2981,-0.0298 -0.64092,-0.0596 -0.32792,-0.0298 -0.64093,-0.0298 -0.31301,0 -0.65583,0.0298 -0.32791,0.0298 -0.62601,0.0596 z"
           style="font-weight:500;font-family:'Kiwi Maru';-inkscape-font-specification:'Kiwi Maru Medium';text-align:center;text-anchor:middle"
           id="path52" />
        <path
           d="m 282.89197,125.88305 q 0.25338,0 0.43225,0.17886 0.17886,0.16396 0.17886,0.43225 0,0.2683 -0.20867,0.44716 -0.19377,0.17886 -0.46207,0.16396 -0.46206,-0.0447 -0.74526,-0.0745 -0.26829,-0.0149 -0.53658,-0.0149 -0.31301,0 -0.58131,0.0149 -0.26829,0.0298 -0.70054,0.0745 -0.26829,0.0149 -0.47697,-0.16396 -0.19376,-0.17886 -0.19376,-0.44716 0,-0.26829 0.17886,-0.43225 0.17886,-0.17886 0.43225,-0.17886 0.11924,0 0.25339,0.0149 0.14905,0.0149 0.2981,0.0298 h 0.0298 q 0.10434,0 0.10434,-0.11924 v -8.83878 q 0,-0.11924 -0.10434,-0.11924 -0.14905,0 -0.2981,0.0298 -0.13415,0.0149 -0.29811,0.0149 -0.23848,0 -0.41734,-0.16395 -0.17886,-0.17887 -0.17886,-0.43225 0,-0.2832 0.19376,-0.46207 0.19377,-0.17886 0.47697,-0.14905 0.22358,0.0149 0.46206,0.0447 0.25339,0.0149 0.49187,0.0298 0.40244,0.0149 0.68564,0.31301 0.29811,0.2832 0.29811,0.67073 v 9.06236 q 0,0.11924 0.11924,0.11924 0.13414,0 0.2832,-0.0149 0.14905,-0.0298 0.2832,-0.0298 z"
           style="font-weight:500;font-family:'Kiwi Maru';-inkscape-font-specification:'Kiwi Maru Medium';text-align:center;text-anchor:middle"
           id="path54" />
        <path
           d="m 285.36621,127.80582 q -0.44715,0 -0.77507,-0.32791 -0.31301,-0.31301 -0.31301,-0.76017 0,-0.44716 0.31301,-0.76016 0.32792,-0.32792 0.77507,-0.32792 0.44716,0 0.76017,0.32792 0.32791,0.313 0.32791,0.76016 0,0.44716 -0.32791,0.76017 -0.31301,0.32791 -0.76017,0.32791 z"
           style="font-weight:500;font-family:'Kiwi Maru';-inkscape-font-specification:'Kiwi Maru Medium';text-align:center;text-anchor:middle"
           id="path56" />
        <path
           d="m 295.03968,124.83969 q 0.20868,0.23848 0.20868,0.50677 0,0.23849 -0.17887,0.44716 -0.55149,0.61111 -1.32656,0.95393 -0.77507,0.34282 -1.60976,0.34282 -0.96884,0 -1.74391,-0.34282 -0.76016,-0.35772 -1.29675,-0.93903 -0.52168,-0.5813 -0.80488,-1.29675 -0.26829,-0.71545 -0.26829,-1.4458 0,-1.1477 0.50677,-2.05692 0.52168,-0.90922 1.40109,-1.44581 0.89431,-0.53658 2.0122,-0.53658 1.75882,0 2.80218,1.22222 0.53659,0.62602 0.53659,1.20732 0,0.2683 -0.13415,0.52169 -0.26829,0.47696 -0.81979,0.47696 -0.40244,0 -0.67073,-0.2832 -0.26829,-0.2981 -0.26829,-0.68563 0,-0.23849 0.14905,-0.49188 0.0596,-0.10433 -0.0149,-0.17886 -0.49187,-0.5813 -1.57995,-0.5813 -0.76016,0 -1.35637,0.37263 -0.59621,0.35772 -0.93903,0.99865 -0.32791,0.62602 -0.32791,1.46071 0,0.77507 0.35772,1.41599 0.37263,0.62602 0.99865,0.99865 0.62602,0.35772 1.41599,0.35772 1.17752,0 2.11654,-0.98374 0.17887,-0.20867 0.43225,-0.20867 0.23849,0 0.40244,0.19377 z"
           style="font-weight:500;font-family:'Kiwi Maru';-inkscape-font-specification:'Kiwi Maru Medium';text-align:center;text-anchor:middle"
           id="path58" />
        <path
           d="m 300.76328,127.10528 q -0.84959,0 -1.59485,-0.31301 -0.74526,-0.31301 -1.31166,-0.86451 -0.5664,-0.55149 -0.89431,-1.28184 -0.31301,-0.74526 -0.31301,-1.57995 0,-0.83469 0.31301,-1.56505 0.32791,-0.74526 0.89431,-1.29675 0.5664,-0.55149 1.31166,-0.8645 0.74526,-0.31301 1.59485,-0.31301 0.8496,0 1.57996,0.31301 0.74526,0.31301 1.31165,0.8794 0.5664,0.5515 0.87941,1.28185 0.32791,0.73036 0.32791,1.56505 0,0.83469 -0.32791,1.56504 -0.31301,0.73036 -0.87941,1.29675 -0.56639,0.5515 -1.31165,0.86451 -0.73036,0.31301 -1.57996,0.31301 z m 0,-1.23714 q 0.78998,0 1.4309,-0.37263 0.64093,-0.37263 1.01356,-1.01355 0.37263,-0.64092 0.37263,-1.41599 0,-0.77507 -0.38754,-1.40109 -0.37263,-0.64093 -1.01355,-1.01356 -0.62602,-0.38753 -1.416,-0.38753 -0.80488,0 -1.4458,0.37263 -0.64092,0.37263 -1.01355,1.01355 -0.37263,0.62602 -0.37263,1.416 0,0.77507 0.37263,1.41599 0.37263,0.64092 1.01355,1.01355 0.65583,0.37263 1.4458,0.37263 z"
           style="font-weight:500;font-family:'Kiwi Maru';-inkscape-font-specification:'Kiwi Maru Medium';text-align:center;text-anchor:middle"
           id="path60" />
        <path
           d="m 319.11156,125.88305 q 0.2683,-0.0298 0.46206,0.14905 0.19377,0.17886 0.19377,0.46206 0,0.2683 -0.19377,0.44716 -0.19376,0.17886 -0.46206,0.16396 -0.46206,-0.0447 -0.73035,-0.0745 -0.25339,-0.0149 -0.49187,-0.0149 -0.2683,0 -0.52169,0.0149 -0.25338,0.0298 -0.70054,0.0745 -0.26829,0.0149 -0.46206,-0.16396 -0.19377,-0.17886 -0.19377,-0.44716 0,-0.2832 0.19377,-0.46206 0.19377,-0.17886 0.46206,-0.14905 l 0.43225,0.0298 h 0.0298 q 0.10434,0 0.10434,-0.11924 v -3.78592 q 0,-0.64093 -0.17887,-1.05827 -0.16395,-0.43225 -0.46206,-0.50678 -0.10433,-0.0298 -0.20867,-0.0447 -0.10434,-0.0149 -0.20867,-0.0149 -1.04337,0 -2.41464,1.4309 -0.0745,0.0745 -0.0745,0.16396 v 3.81573 q 0,0.11924 0.13415,0.11924 l 0.44715,-0.0298 q 0.2832,-0.0298 0.47697,0.14905 0.19377,0.17886 0.19377,0.46206 0,0.2683 -0.20868,0.44716 -0.19376,0.17886 -0.46206,0.16396 -0.46206,-0.0447 -0.73035,-0.0745 -0.25339,-0.0149 -0.47697,-0.0149 -0.2832,0 -0.53659,0.0149 -0.23848,0.0298 -0.68564,0.0745 -0.26829,0.0149 -0.47696,-0.16396 -0.19377,-0.17886 -0.19377,-0.44716 0,-0.2832 0.19377,-0.46206 0.19377,-0.17886 0.47696,-0.14905 l 0.44716,0.0298 q 0.13415,0 0.13415,-0.11924 v -3.78592 q 0,-1.38619 -0.5664,-1.57995 -0.16396,-0.0596 -0.35772,-0.0596 -0.50678,0 -1.1328,0.38753 -0.62602,0.37263 -1.32656,1.08808 -0.0745,0.0745 -0.0745,0.16396 v 3.78592 q 0,0.11924 0.13415,0.11924 l 0.44715,-0.0298 q 0.2683,-0.0298 0.46207,0.14905 0.19376,0.17886 0.19376,0.46206 0,0.2683 -0.19376,0.44716 -0.19377,0.17886 -0.46207,0.16396 -0.46206,-0.0447 -0.73035,-0.0745 -0.25339,-0.0149 -0.49187,-0.0149 -0.2683,0 -0.52168,0.0149 -0.25339,0.0298 -0.70055,0.0745 -0.26829,0.0149 -0.46206,-0.16396 -0.19377,-0.17886 -0.19377,-0.44716 0,-0.2832 0.19377,-0.46206 0.19377,-0.17886 0.46206,-0.14905 l 0.44716,0.0298 q 0.13414,0 0.13414,-0.11924 v -5.4404 q 0,-0.11924 -0.10433,-0.11924 -0.14905,0 -0.2832,0.0149 -0.13415,0.0149 -0.26829,0.0447 -0.2832,0.0298 -0.49188,-0.14905 -0.20867,-0.19377 -0.20867,-0.47697 0,-0.2981 0.20867,-0.47697 0.20868,-0.17886 0.49188,-0.14905 0.2981,0.0596 0.74526,0.0894 h 0.55149 q 0.26829,0 0.44715,0.19377 0.19377,0.17886 0.19377,0.44716 v 0.34282 q 0,0.0745 0.0447,0.10433 0.0596,0.0298 0.11924,-0.0298 1.32656,-1.1626 2.50407,-1.1626 0.50678,0 0.95393,0.22358 0.59621,0.28319 0.86451,1.07317 0.0745,0.14905 0.17886,0.0447 1.41599,-1.34147 2.68293,-1.34147 0.5515,0 1.02846,0.23848 0.49188,0.23848 0.74526,0.73036 0.25339,0.47696 0.34282,1.02845 0.10434,0.5515 0.10434,0.98375 v 3.78592 q 0,0.11924 0.13415,0.11924 z"
           style="font-weight:500;font-family:'Kiwi Maru';-inkscape-font-specification:'Kiwi Maru Medium';text-align:center;text-anchor:middle"
           id="path62" />
      </g>
    </g>
    <path
       id="rect2"
       d="m 14.647163,54.347561 v 3.00542 3.00542 3.00542 3.00542 3.00542 3.00542 3.00542 h 21.03794 v -3.00542 -3.00542 -3.00542 -3.00542 -3.00542 -3.00542 -3.00542 z m 24.04336,0 v 3.00542 h 3.00542 v -3.00542 z m 3.00542,3.00542 v 3.00542 h 6.01084 v -3.00542 h 9.01626 v 3.00542 h -3.00542 v 3.00542 h 3.00542 v 3.00542 h 3.00542 v -3.00542 h 3.00542 v 3.00542 h 6.01084 v -3.00542 -3.00542 -3.00542 h -6.01084 v 3.00542 h -3.00542 v -3.00542 h 3.00542 v -3.00542 h -18.03252 v 3.00542 z m 27.04878,0 h 9.01626 v 3.00542 h 3.00542 v -3.00542 -3.00542 h -12.02168 z m 12.02168,3.00542 v 3.00542 3.00542 h -3.00542 v -3.00542 h -3.00542 v 3.00542 h -6.01084 v 3.00542 3.00542 3.00542 3.00542 3.00542 h 3.00542 v -3.00542 h 3.00542 v -3.00542 h -3.00542 v -3.00542 h 3.00542 v 3.00542 h 3.00542 v -3.00542 h 3.00542 v 3.00542 h 3.00543 v -3.00542 h 3.00542 v 3.00542 h 3.00542 v -3.00542 -3.00542 -3.00542 -3.00542 h -3.00542 v 3.00542 3.00542 h -3.00542 v -3.00542 -3.00542 h 3.00542 v -3.00542 h 3.00542 v -3.00542 -3.00542 h -6.01084 v 3.00542 3.00542 z m 6.01085,15.0271 h -3.00542 v 3.00542 h 3.00542 z m 0,3.00542 v 3.00542 3.00542 h 3.00542 v 3.00543 h 6.01084 v 3.00542 h 3.005416 v 3.00542 3.00542 h 3.005421 v -3.00542 -3.00542 -3.00542 h 9.01626 v 3.00542 3.00542 h -3.00542 v -3.00542 h -3.00542 v 3.00542 3.00542 h 3.00542 v 3.00542 3.005419 3.00542 h -3.00542 v 3.00542 h -3.00542 v 3.00542 h 9.01626 v 3.00542 3.00542 h -3.00542 v 3.00542 h -6.01084 v 3.00542 h 6.01084 v 3.00542 h 3.00542 v 3.00542 3.00542 h -6.01084 v 3.00542 h 3.00542 v 3.00542 3.00542 h 6.01084 v -3.00542 h -3.00542 v -3.00542 h 3.00542 v -3.00542 -3.00542 -3.00542 -3.00542 -3.00542 -3.00542 -3.00542 -3.00542 -3.00542 -3.00542 h -3.00542 v -3.00542 -3.005419 h 3.00542 v -3.00542 -3.00542 -3.00542 -3.00542 -3.00543 -3.00542 -3.00542 h -3.00542 v 3.00542 3.00542 h -3.00542 v -3.00542 h -3.00542 v -3.00542 h -3.00542 v 3.00542 3.00542 h -6.010837 v -3.00542 h -3.00542 v -3.00542 z m 21.037937,63.113829 h -3.00542 v 3.00542 h -3.00542 v -3.00542 -3.00542 -3.00542 -3.00542 h 3.00542 v -3.00542 h -3.00542 v -3.00542 -3.00542 h -3.005421 v -3.00542 h -3.005416 v 3.00542 3.00542 h -3.00542 v -3.00542 -3.00542 h -3.00542 v -3.00542 -3.00542 -3.00542 -3.00542 h 3.00542 v 3.00542 h 6.010836 v -3.00542 h -3.005416 v -3.00542 -3.00542 h -9.01626 v 3.00542 3.00542 3.00542 h -3.00542 v -3.00542 -3.00542 h -3.00543 v 3.00542 3.00542 h -9.01626 v 3.00542 3.00542 h 3.00542 v -3.00542 h 3.00542 v 3.00542 h 3.00542 v -3.00542 h 6.01085 v 3.00542 h -6.01085 v 3.00542 h 3.00543 v 3.00542 h 3.00542 v 3.00542 h -3.00542 v 3.00542 3.00542 h -3.00543 v 3.00542 h -6.01084 v 3.00542 h 6.01084 v 3.00542 h -3.00542 v 3.00542 h 6.01085 v -3.00542 -3.00542 -3.00542 h 3.00542 v 3.00542 3.00542 h 9.01626 v 3.00542 3.00542 h 6.010837 v 3.00542 h 3.00542 v -3.00542 h 3.00542 v -3.00542 z m 0,6.01084 v 3.00542 h -3.00542 v 3.00542 h 9.01626 v -3.00542 h -3.00542 v -3.00542 z m 3.00542,0 h 3.00542 v -3.00542 h -3.00542 z m -9.01626,3.00542 h -3.005421 v 3.00542 h 3.005421 z m -6.010837,-3.00542 h -3.00542 v 3.00542 h 3.00542 z m -3.00542,0 v -3.00542 h -6.01084 v 3.00542 h -3.00542 v 3.00542 h -3.00543 v -3.00542 h -3.00542 v 3.00542 h -3.00542 v 3.00542 h 15.02711 v -3.00542 -3.00542 z m -15.02711,0 v -3.00542 h -3.00542 v -3.00542 -3.00542 h -3.00542 v 3.00542 h -3.00542 v 3.00542 h 3.00542 v 3.00542 z m -6.01084,0 h -6.01084 v 3.00542 h 6.01084 z m 9.01626,-15.0271 v -3.00542 -3.00542 -3.00542 -3.00542 h -3.00542 v -3.00542 h -3.00542 v 3.00542 3.00542 h -3.00542 v 3.00542 h -3.00542 v 3.00542 h 9.01626 v 3.00542 z m -12.02168,-3.00542 h -3.00542 v 3.00542 h 3.00542 z m -3.00542,3.00542 h -3.00542 v 3.00542 h -3.00542 v -3.00542 h -3.00542 v 3.00542 3.00542 3.00542 h -3.00542 v 3.00542 3.00542 h 6.01084 v -3.00542 h 3.00542 v -3.00542 h -3.00542 v -3.00542 h 3.00542 v 3.00542 h 3.00542 v -3.00542 -3.00542 z m -6.01084,15.0271 v 3.00542 h 3.00542 v -3.00542 z m -6.01084,-6.01084 v -3.00542 h -3.00542 v 3.00542 z m -3.00542,-3.00542 v -3.00542 -3.00542 -3.00542 h 9.01626 v 3.00542 h 3.00542 v -3.00542 h 3.00542 v -3.00542 h -3.00542 v -3.00542 h -3.00542 v 3.00542 h -3.00542 v -3.00542 h -3.00542 v 3.00542 h -6.01084 v -3.00542 h 6.01084 v -3.00542 h -9.01626 v 3.00542 3.00542 h -12.02168 v -3.00542 h -3.00542 v 3.00542 h -3.00542 v 3.00542 h 12.02168 v 3.00542 h 9.01626 v 3.00542 h -9.01626 v 3.00542 3.00542 h 3.00542 v -3.00542 h 3.00542 v 3.00542 h 3.00542 v -3.00542 z m -6.01084,3.00542 h -3.00542 v 3.00542 h -3.00542 v 3.00542 h 6.01084 v -3.00542 z m -18.03252,-15.0271 v -3.00542 h 3.00542 v -3.00542 h -3.00542 v -3.00542 h 3.00542 v -3.00542 -3.00542 h -9.01626 v 3.00542 h 3.00542 v 3.00542 3.00542 3.00542 h -6.01084 v 3.00542 z m -9.01626,0 h -3.00542 v 3.00542 h 3.00542 z m 0,-3.00542 v -3.00542 h -3.00542 v 3.00542 z m 0,-3.00542 h 3.00542 v -3.00542 h -3.00542 z m 0,-3.00542 v -3.00542 -3.00542 h -3.00542 v 3.00542 3.00542 z m 0,-6.01084 h 3.00542 v -3.00542 h -3.00542 z m 3.00542,-3.00542 h 3.00542 v -3.00542 h -3.00542 z m 0,-3.00542 v -3.00542 h -3.00542 v 3.00542 z m 0,-3.00542 h 3.00542 v -3.005419 h 3.00542 v -3.00542 h -6.01084 v -3.00542 h -3.00542 v 3.00542 h -3.00542 v 3.00542 h 6.01084 z m -3.00542,-9.016259 v -3.00542 -3.00542 h -3.00542 v 3.00542 3.00542 z m 0,-6.01084 h 3.00542 v -3.00543 h 6.01084 v -3.00542 h -3.00542 v -3.00542 h -3.00542 v 3.00542 h -3.00542 v 3.00542 z m 9.01626,-6.01085 h 3.00542 v 3.00542 h 3.00542 v -3.00542 h 3.00542 v -3.00542 h -9.01626 z m 9.01626,0 v 3.00542 h 3.00542 v 3.00543 h 3.00542 v -3.00543 h 3.00542 v -3.00542 -3.00542 -3.00542 h -3.00542 v 3.00542 h -3.00542 v 3.00542 z m 6.01084,-6.01084 v -3.00542 h -3.00542 v 3.00542 z m 0,-3.00542 h 3.00542 v 3.00542 h 3.00542 v -3.00542 -3.00542 h -6.01084 z m 6.01084,3.00542 v 3.00542 3.00542 h 3.00542 v 3.00542 h -3.00542 v 3.00543 h -3.00542 v 3.00542 h 6.01084 v -3.00542 h 6.01084 v 3.00542 h -3.00542 v 3.00542 h -9.01626 v 3.00542 h -3.00542 v 3.00542 h 6.01084 v -3.00542 h 3.00542 v 3.00542 h -3.00542 v 3.005419 h -3.00542 v 3.00542 h 3.00542 v 3.00542 3.00542 h 3.00542 v -3.00542 -3.00542 -3.00542 h 3.00542 v 3.00542 3.00542 3.00542 3.00542 3.00542 3.00542 h 6.01084 v -3.00542 h -3.00542 v -3.00542 h 3.00542 v -3.00542 h -3.00542 v -3.00542 -3.00542 -3.00542 -3.005419 -3.00542 -3.00542 h 3.00542 v 3.00542 3.00542 h 3.00542 v -3.00542 h 3.00542 v -3.00542 h -3.00542 v -3.00542 -3.00542 -3.00543 h -6.01084 v -3.00542 -3.00542 h 3.00542 v -3.00542 -3.00542 h -3.00542 v 3.00542 h -3.00542 v -3.00542 h -3.00542 v 3.00542 z m 12.02168,3.00542 v 3.00542 h 6.01084 v -3.00542 -3.00542 -3.00542 h -3.00542 v 3.00542 3.00542 z m 6.01084,3.00542 v 3.00542 h 3.00542 v -3.00542 z m 3.00542,3.00542 v 3.00543 3.00542 h 3.00542 v -3.00542 h 9.01626 v -3.00543 z m 0,6.01085 h -3.00542 v 3.00542 h 3.00542 z m -24.04336,15.027099 h -6.01084 v 3.00542 h -6.01084 v 3.00542 h 9.01626 v -3.00542 h 3.00542 z m -3.00542,-6.010839 h -3.00542 v 3.005419 h 3.00542 z m -3.00542,0 v -3.00542 -3.00542 h 6.01084 v -3.00542 h -12.02168 v -3.00542 h -3.00542 v 3.00542 3.00542 h 6.01084 v 3.00542 h -6.01084 v 3.00542 h -3.00542 v 3.005419 h 6.01084 v -3.005419 z m -6.01084,3.005419 v 3.00542 h 3.00542 v -3.00542 z m -6.01084,0 h -3.00542 v 3.00542 h 3.00542 z m 3.00542,-6.010839 v -3.00542 h -3.00542 v 3.00542 z m 3.00542,-9.01626 h 3.00542 v -3.00543 h -3.00542 z m 0,36.065039 h 6.01084 v -3.00542 -3.00542 -3.00542 h -6.01084 v 3.00542 h 3.00542 v 3.00542 h -3.00542 z m 30.0542,0 h 3.00542 v -3.00542 h -3.00542 z m 3.00542,-3.00542 h 6.01084 v -3.00542 h -6.01084 z m 6.01084,-9.01626 v -3.00542 h -3.00542 v 3.00542 z m 0,-3.00542 h 3.00542 v -3.00542 -3.00542 h -6.01084 v 3.00542 h 3.00542 z m -3.00542,-6.01084 v -3.005419 h -3.00542 v 3.005419 z m 12.02168,3.00542 v -3.00542 -3.005419 h 3.00543 v -3.00542 h -6.01085 v 3.00542 3.005419 3.00542 z m 24.043367,-9.016259 h -3.00542 v 3.00542 h 3.00542 z m -3.00542,3.00542 h -3.005421 v 3.005419 h 3.005421 z m -6.010837,-9.01626 h -3.00542 v 3.00542 h -3.00542 v -3.00542 h -3.00542 v -3.00542 h -3.00542 v 3.00542 3.00542 h 3.00542 v 3.00542 h 3.00542 v 3.00542 h 3.00542 v -3.00542 h 3.00542 v -3.00542 z m -12.02168,-12.02169 h -3.00543 v -3.00542 h -3.00542 v 3.00542 3.00542 h 6.01085 z m -9.01627,-15.0271 v -3.00542 h -3.00542 v 3.00542 z m -12.02168,3.00542 h -3.00542 v 3.00542 h 3.00542 z m -6.01084,0 h -3.00542 v 3.00542 h 3.00542 z m -9.01626,-6.01084 v 3.00542 3.00542 h 3.00542 v -3.00542 -3.00542 z m 45.08131,-6.01084 v 3.00542 3.00542 3.00542 3.00542 3.00542 3.00542 3.00542 h 21.037937 v -3.00542 -3.00542 -3.00542 -3.00542 -3.00542 -3.00542 -3.00542 z m -75.13551,3.00542 h 15.0271 v 3.00542 3.00542 3.00542 3.00542 3.00542 h -15.0271 v -3.00542 -3.00542 -3.00542 -3.00542 z m 78.14093,0 h 15.027097 v 3.00542 3.00542 3.00542 3.00542 3.00542 H 95.793513 v -3.00542 -3.00542 -3.00542 -3.00542 z m -75.13551,3.00542 v 3.00542 3.00542 3.00542 h 9.01626 v -3.00542 -3.00542 -3.00542 z m 78.140926,0 v 3.00542 3.00542 3.00542 h 9.016261 v -3.00542 -3.00542 -3.00542 z m -60.108406,3.00542 v 3.00542 h 3.00542 v -3.00542 z m -15.0271,24.04337 v 3.00542 h 3.00542 v -3.00542 z m 51.09214,3.00542 v 3.00542 h 3.00542 v -3.00542 z m 0,3.00542 h -3.00542 v 3.00542 3.00542 h 3.00542 v -3.00542 z m -15.0271,9.016259 v 3.00542 h 3.00542 v -3.00542 z m 3.00542,6.01084 v 3.00542 h 3.00542 v -3.00542 z m -18.03252,6.01084 v 3.00542 h 3.00542 v -3.00542 z m 48.08673,0 v 3.00542 h 6.010836 v -3.00542 z m -3.00542,15.0271 h 9.016256 v 3.00542 3.00542 3.00542 h -9.016256 v -3.00542 -3.00542 z m -75.13551,3.00542 v 3.00542 3.00542 3.00542 3.00542 3.00542 3.00542 3.00542 h 21.03794 v -3.00542 -3.00542 -3.00542 -3.00542 -3.00542 -3.00542 -3.00542 z m 78.14093,0 v 3.00542 h 3.00542 v -3.00542 z m -75.13551,3.00542 h 15.0271 v 3.00542 3.00542 3.00542 3.00542 3.00542 h -15.0271 v -3.00542 -3.00542 -3.00542 -3.00542 z m 3.00542,3.00542 v 3.00542 3.00542 3.00542 h 9.01626 v -3.00542 -3.00542 -3.00542 z m 21.03794,12.02168 v 3.00542 h 3.00542 v -3.00542 z m 6.01084,0 v 3.00542 h 6.01084 v -3.00542 z"
       style="stroke-width:0.300542;fill:#180a00;fill-opacity:1" />
  </g>
</svg>
