<?xml version="1.0" encoding="UTF-8" standalone="no"?>
<!-- Created with Inkscape (http://www.inkscape.org/) -->

<svg
   xmlns:dc="http://purl.org/dc/elements/1.1/"
   xmlns:cc="http://creativecommons.org/ns#"
   xmlns:rdf="http://www.w3.org/1999/02/22-rdf-syntax-ns#"
   xmlns:svg="http://www.w3.org/2000/svg"
   xmlns="http://www.w3.org/2000/svg"
   xmlns:sodipodi="http://sodipodi.sourceforge.net/DTD/sodipodi-0.dtd"
   xmlns:inkscape="http://www.inkscape.org/namespaces/inkscape"
   width="50.270832mm"
   height="223.13194mm"
   viewBox="0 0 178.125 790.62499"
   id="svg2"
   version="1.1"
   inkscape:version="0.91 r13725"
   sodipodi:docname="mapinfo.svg">
  <defs
     id="defs4" />
  <sodipodi:namedview
     id="base"
     pagecolor="#ffffff"
     bordercolor="#666666"
     borderopacity="1.0"
     inkscape:pageopacity="0.0"
     inkscape:pageshadow="2"
     inkscape:zoom="0.45254834"
     inkscape:cx="-16.039608"
     inkscape:cy="272.26174"
     inkscape:document-units="px"
     inkscape:current-layer="layer1"
     showgrid="false"
     inkscape:window-width="1822"
     inkscape:window-height="1051"
     inkscape:window-x="1911"
     inkscape:window-y="-9"
     inkscape:window-maximized="1"
     fit-margin-top="0"
     fit-margin-left="0"
     fit-margin-right="0"
     fit-margin-bottom="0"
     inkscape:snap-bbox="true"
     inkscape:bbox-paths="true"
     inkscape:snap-bbox-edge-midpoints="true"
     inkscape:snap-bbox-midpoints="true"
     inkscape:bbox-nodes="true"
     inkscape:object-paths="true"
     inkscape:object-nodes="true"
     inkscape:snap-midpoints="true"
     inkscape:snap-center="true"
     inkscape:snap-page="true"
     inkscape:snap-text-baseline="true"
     inkscape:snap-object-midpoints="true"
     inkscape:snap-smooth-nodes="true"
     inkscape:snap-intersection-paths="true"
     showguides="true"
     inkscape:guide-bbox="true">
    <sodipodi:guide
       position="178.125,8.9336818e-007"
       orientation="0,1"
       id="guide4146" />
    <sodipodi:guide
       position="178.125,8.9336818e-007"
       orientation="1,0"
       id="guide4148" />
  </sodipodi:namedview>
  <metadata
     id="metadata7">
    <rdf:RDF>
      <cc:Work
         rdf:about="">
        <dc:format>image/svg+xml</dc:format>
        <dc:type
           rdf:resource="http://purl.org/dc/dcmitype/StillImage" />
        <dc:title></dc:title>
      </cc:Work>
    </rdf:RDF>
  </metadata>
  <g
     inkscape:label="レイヤー 1"
     inkscape:groupmode="layer"
     id="layer1"
     transform="translate(-282.98474,-219.93111)">
    <path
       style="color:#000000;clip-rule:nonzero;display:inline;overflow:visible;visibility:visible;opacity:1;isolation:auto;mix-blend-mode:normal;color-interpolation:sRGB;color-interpolation-filters:linearRGB;solid-color:#000000;solid-opacity:1;fill:#007b43;fill-opacity:1;fill-rule:nonzero;stroke:none;stroke-width:1;stroke-linecap:butt;stroke-linejoin:miter;stroke-miterlimit:4;stroke-dasharray:none;stroke-dashoffset:0;stroke-opacity:1;color-rendering:auto;image-rendering:auto;shape-rendering:auto;text-rendering:auto;enable-background:accumulate"
       d="m 282.98474,219.93111 178.125,0 c 0,263.54166 0,527.08332 0,790.62499 l -178.125,-178.12499 z"
       id="rect4140"
       inkscape:connector-curvature="0"
       sodipodi:nodetypes="ccccc" />
    <g
       transform="matrix(0,1,-1,0,0,0)"
       style="font-style:normal;font-weight:normal;font-size:180px;line-height:125%;font-family:sans-serif;letter-spacing:0px;word-spacing:0px;writing-mode:lr-tb;fill:#ede4cd;fill-opacity:1;stroke:none;stroke-width:1px;stroke-linecap:butt;stroke-linejoin:miter;stroke-opacity:1"
       id="text4136">
      <path
         d="m 275.54633,-442.97498 29.88281,0 0,141.85547 -29.88281,0 0,-141.85547 z"
         style="font-style:normal;font-variant:normal;font-weight:bold;font-stretch:expanded;font-family:'A-TTC Shin Go';-inkscape-font-specification:'A-TTC Shin Go Bold Expanded';letter-spacing:10px;fill:#ede4cd;fill-opacity:1"
         id="path4139" />
      <path
         d="m 340.30219,-442.97498 43.41796,0 60.55664,110.39063 0,-110.39063 29.53125,0 0,141.85547 -43.41796,0 -60.46875,-110.30273 0,110.30273 -29.61914,0 0,-141.85547 z"
         style="font-style:normal;font-variant:normal;font-weight:bold;font-stretch:expanded;font-family:'A-TTC Shin Go';-inkscape-font-specification:'A-TTC Shin Go Bold Expanded';letter-spacing:10px;fill:#ede4cd;fill-opacity:1"
         id="path4141" />
      <path
         d="m 507.36273,-442.97498 108.63281,0 0,27.07032 -79.01367,0 0,33.48633 75.84961,0 0,27.07031 -75.84961,0 0,54.22851 -29.61914,0 0,-141.85547 z"
         style="font-style:normal;font-variant:normal;font-weight:bold;font-stretch:expanded;font-family:'A-TTC Shin Go';-inkscape-font-specification:'A-TTC Shin Go Bold Expanded';letter-spacing:10px;fill:#ede4cd;fill-opacity:1"
         id="path4143" />
      <path
         d="m 709.05219,-444.46912 q 28.30078,0 41.30859,5.625 18.10547,7.73438 23.29101,29.26758 3.16407,12.91992 3.16407,37.70508 0,29.17969 -4.65821,42.62695 -7.03125,20.03907 -27.07031,25.92774 -12.48047,3.6914 -37.79297,3.6914 -30.14648,0 -43.0664,-5.53711 -18.01758,-7.73437 -23.29102,-29.35546 -3.16406,-12.91993 -3.16406,-36.73829 0,-30.05859 4.6582,-43.59375 6.85547,-19.95117 27.07031,-26.01562 12.30469,-3.60352 39.55079,-3.60352 z m -2.28516,27.07032 q -18.98438,0 -25.57617,2.46093 -8.4375,3.07618 -10.98633,11.42579 -2.72461,8.61328 -2.72461,31.55273 0,22.85156 2.54883,31.37695 2.54883,8.17383 10.98633,11.42578 6.5039,2.46094 25.92773,2.46094 20.21484,0 26.71875,-2.46094 8.4375,-3.16406 10.98633,-11.42578 2.54883,-8.34961 2.54883,-31.46484 0,-23.02734 -2.63672,-31.46484 -2.63672,-8.17383 -10.98633,-11.42579 -6.5918,-2.46093 -26.80664,-2.46093 z"
         style="font-style:normal;font-variant:normal;font-weight:bold;font-stretch:expanded;font-family:'A-TTC Shin Go';-inkscape-font-specification:'A-TTC Shin Go Bold Expanded';letter-spacing:10px;fill:#ede4cd;fill-opacity:1"
         id="path4145" />
    </g>
  </g>
</svg>
