<?xml version="1.0" encoding="UTF-8" standalone="no"?>
<!-- Created with Inkscape (http://www.inkscape.org/) -->

<svg
   xmlns:dc="http://purl.org/dc/elements/1.1/"
   xmlns:cc="http://creativecommons.org/ns#"
   xmlns:rdf="http://www.w3.org/1999/02/22-rdf-syntax-ns#"
   xmlns:svg="http://www.w3.org/2000/svg"
   xmlns="http://www.w3.org/2000/svg"
   xmlns:sodipodi="http://sodipodi.sourceforge.net/DTD/sodipodi-0.dtd"
   xmlns:inkscape="http://www.inkscape.org/namespaces/inkscape"
   width="181.64175mm"
   height="50.889194mm"
   viewBox="0 0 643.61251 180.31605"
   id="svg4161"
   version="1.1"
   inkscape:version="0.91 r13725"
   sodipodi:docname="maptitle.svg">
  <defs
     id="defs4163" />
  <sodipodi:namedview
     id="base"
     pagecolor="#007b43"
     bordercolor="#666666"
     borderopacity="1.0"
     inkscape:pageopacity="0"
     inkscape:pageshadow="2"
     inkscape:zoom="1.4"
     inkscape:cx="360.06926"
     inkscape:cy="78.494846"
     inkscape:document-units="px"
     inkscape:current-layer="layer1"
     showgrid="false"
     fit-margin-top="0"
     fit-margin-left="0"
     fit-margin-right="0"
     fit-margin-bottom="0"
     inkscape:window-width="1920"
     inkscape:window-height="1051"
     inkscape:window-x="-9"
     inkscape:window-y="-9"
     inkscape:window-maximized="1" />
  <metadata
     id="metadata4166">
    <rdf:RDF>
      <cc:Work
         rdf:about="">
        <dc:format>image/svg+xml</dc:format>
        <dc:type
           rdf:resource="http://purl.org/dc/dcmitype/StillImage" />
        <dc:title />
      </cc:Work>
    </rdf:RDF>
  </metadata>
  <g
     inkscape:label="レイヤー 1"
     inkscape:groupmode="layer"
     id="layer1"
     transform="translate(-78.306855,-509.02883)">
    <g
       transform="matrix(0.12748967,0,0,0.12748967,254.23121,532.08121)"
       style="font-style:normal;font-weight:normal;font-size:376.28347778px;line-height:125%;font-family:sans-serif;letter-spacing:0px;word-spacing:0px;writing-mode:lr-tb;fill:#ede4cd;fill-opacity:1;stroke:none;stroke-width:1px;stroke-linecap:butt;stroke-linejoin:miter;stroke-opacity:1"
       id="text5819">
      <path
         inkscape:connector-curvature="0"
         d="m -68.215194,-9.7253046 q 9.921537,18.0057524 12.493787,37.8488266 2.57225,19.475609 -0.734929,38.951219 -3.307179,19.47561 -12.126323,37.848829 -8.819144,18.00575 -22.04786,32.70432 -16.168431,18.00576 -36.378971,30.13208 -20.21054,11.75886 -42.99332,19.47561 -22.41533,7.34928 -45.93305,11.75886 -23.51771,4.40957 -46.3005,6.98182 -5.51197,0.73493 -6.2469,-4.77704 l -4.77703,-37.84882 q -0.73493,-5.51197 4.77703,-6.2469 16.16843,-1.83732 32.33687,-4.40957 16.53589,-2.57225 31.96939,-6.61436 15.80097,-4.40957 30.13208,-11.02393 14.69857,-6.98182 27.19236,-17.63829 11.02393,-8.81914 19.84307,-20.945462 8.81915,-12.126323 13.59618,-25.355039 5.1445,-13.228716 5.1445,-27.192361 0,-13.963645 -7.34928,-27.192361 -6.61436,-12.4937869 -17.63829,-19.8430736 -11.02393,-7.3492864 -24.25265,-11.0239304 -12.86125,-3.674643 -27.19236,-4.409572 -13.96364,-1.102393 -27.19236,-1.102393 -18.74068,0 -37.1139,1.837322 -18.00575,1.469857 -36.74643,4.409572 -18.37322,2.939715 -36.74643,6.2468937 -18.00576,3.307179 -36.37897,6.61435804 -4.40957,0.73492867 -6.98182,-3.67464334 l 0,-0.7349287 -7.34929,-38.5837547 q -1.10239,-5.144501 4.77704,-6.246894 l 38.58375,-7.349287 q 36.74643,-6.614358 73.49287,-11.02393 36.74643,-4.409572 74.22779,-1.469857 16.90336,1.469857 33.43926,5.144501 16.90336,3.674643 31.60193,10.656465 15.06604,6.981823 27.559824,18.005753 12.861252,10.656465 21.312932,26.0899674 z"
         style="font-style:normal;font-variant:normal;font-weight:normal;font-stretch:normal;font-family:'07YasashisaGothicBold';-inkscape-font-specification:'07YasashisaGothicBold';fill:#ede4cd;fill-opacity:1"
         id="path4144" />
      <path
         inkscape:connector-curvature="0"
         d="m 280.50846,200.83176 -22.78279,33.07179 q -2.93971,4.40957 -6.98182,1.46986 l -168.666132,-115.3838 q -16.903359,-11.3914 -25.722503,-26.824901 -8.819144,-15.800966 -9.554073,-33.439255 -1.102393,-18.005752 7.716751,-34.174183 8.819144,-16.1684302 24.620111,-27.9272889 l 152.497696,-115.0163321 q 4.40957,-2.93972 7.34929,1.10239 l 23.88518,31.234467 q 3.30718,4.409572 -1.10239,7.349287 l -149.55799,112.076621 q -13.963641,10.656466 -13.963641,23.150253 l 0.367464,0.367465 q 0,13.228716 14.698577,23.517717 l 165.72641,112.07662 q 1.83732,1.10239 2.20479,3.30718 0.73493,2.57225 -0.73493,4.04211 z"
         style="font-style:normal;font-variant:normal;font-weight:normal;font-stretch:normal;font-family:'07YasashisaGothicBold';-inkscape-font-specification:'07YasashisaGothicBold';fill:#ede4cd;fill-opacity:1"
         id="path4146" />
      <path
         inkscape:connector-curvature="0"
         d="m 701.25512,61.195312 q 9.55407,14.331109 12.12632,30.867004 2.93972,16.168434 -0.36746,32.336864 -3.30718,15.80096 -12.49379,30.49954 -9.18661,14.33111 -23.88518,24.62011 -16.53589,12.12632 -34.54165,19.47561 -18.00575,7.34928 -36.74643,11.75886 -18.74068,4.40957 -38.21629,6.24689 -19.10815,1.83732 -38.58376,2.57225 -5.51196,0 -5.51196,-4.77704 l 0,-35.64404 q 0,-5.1445 5.1445,-5.1445 15.80097,-0.73493 31.60193,-1.83732 15.80097,-1.46986 30.49954,-4.77704 15.06604,-3.30717 29.39715,-8.81914 14.33111,-5.51196 27.55982,-15.06604 6.2469,-4.40957 11.02393,-11.39139 5.1445,-6.98182 7.34929,-14.69858 2.20479,-7.71675 1.10239,-15.80096 -0.73493,-8.084217 -5.87943,-15.800968 -5.87943,-7.716751 -15.4335,-12.493787 -9.55407,-5.144501 -20.94547,-6.981823 -11.02393,-2.204786 -23.51771,-1.837321 -12.49379,0 -23.88518,1.837321 -24.62011,4.042108 -47.4029,15.066038 -22.41533,11.02393 -41.15601,28.66222 -3.67464,2.93971 -8.08421,1.10239 l -31.60194,-14.698572 q -4.40957,-1.837322 -3.67464,-7.349287 1.10239,-5.1445 2.93971,-15.800966 1.83733,-10.656466 4.77704,-25.722504 2.93972,-15.066037 5.87943,-33.07179 3.30718,-18.3732163 7.34929,-38.583755 l -76.80005,0 q -2.20478,0 -3.67464,-1.469857 -1.46986,-1.837322 -1.46986,-4.042108 l 0,-33.07179 q 0,-5.511965 5.1445,-5.511965 l 85.98666,0 7.34928,-33.439256 4.04211,-17.27082 q 1.10239,-5.1445 6.24689,-4.04211 l 36.37897,6.98182 q 5.51197,2.20479 4.40957,6.61436 l -9.55407,41.156006 147.72066,0 q 5.87943,0 5.87943,5.511965 l 0,33.07179 q 0,5.511965 -5.87943,5.511965 l -156.90727,0 q -4.0421,19.4756101 -8.08421,38.583755 -3.67465,18.740681 -7.34929,37.113898 22.78279,-15.800966 51.07754,-24.987575 28.29476,-9.554072 56.58951,-9.554072 28.29475,-0.367465 53.28233,9.921537 24.98757,10.289001 40.78854,34.174183 z"
         style="font-style:normal;font-variant:normal;font-weight:normal;font-stretch:normal;font-family:'07YasashisaGothicBold';-inkscape-font-specification:'07YasashisaGothicBold';fill:#ede4cd;fill-opacity:1"
         id="path4148" />
      <path
         inkscape:connector-curvature="0"
         d="m 879.84282,49.068989 16.16843,32.336861 q 2.20478,5.144501 -2.57225,7.716751 -4.40957,1.837322 -8.45168,3.674644 -3.67465,1.469857 -6.98182,2.939714 -11.75886,5.144501 -24.62011,8.451681 -12.86126,2.93971 -26.08997,-2.57225 -9.55407,-3.674645 -15.80097,-10.289003 -6.24689,-6.614358 -9.92154,-14.331109 -3.30717,-8.084215 -4.77703,-16.903359 -1.46986,-9.186609 -1.83732,-18.005753 -0.36747,-6.246893 -0.36747,-12.126323 0,-6.246893 0,-11.391394 l 0,-115.383801 q 0,-5.511968 5.87943,-5.511968 l 37.84883,0 q 5.87943,0 5.87943,5.511968 l 0,115.383801 q 0,2.204786 -0.36747,5.511965 0,3.307179 -0.36746,6.614358 0,3.307179 0,6.981822 0,3.307179 0.73493,6.614358 1.83732,13.963645 8.08421,11.02393 5.1445,-1.837321 9.92154,-4.042107 4.77704,-2.572251 9.92154,-5.144501 5.1445,-2.57225 7.71675,2.939715 z m 156.17238,-151.762769 0.3674,51.445006 q 0.3675,21.312931 0,42.6258624 0,20.9454666 -0.7349,42.2583986 -0.7349,20.945467 -3.3072,40.788541 -2.5722,19.47561 -6.6143,37.848822 -8.4517,36.74644 -27.1924,65.40866 -18.37322,28.29475 -52.91487,44.09572 l -17.63828,8.08421 q -5.51197,2.20479 -7.71676,-3.30718 l -15.80096,-32.70432 q -1.1024,-2.20479 -0.73493,-4.40958 0.73493,-2.20478 3.30718,-3.30717 l 17.63829,-7.71676 q 24.25264,-10.289 36.74643,-32.33686 12.86125,-22.41532 18.37322,-53.282325 2.93971,-15.800967 4.0421,-32.336862 1.1024,-16.903359 1.83733,-35.276576 0.73492,-18.3732166 1.10239,-37.113898 0.36746,-18.740681 -0.36747,-38.951219 l -0.36746,-51.81247 q 0,-5.51197 6.24689,-5.51197 l 38.2163,0 q 5.512,0 5.512,5.51197 z"
         style="font-style:normal;font-variant:normal;font-weight:normal;font-stretch:normal;font-family:'07YasashisaGothicBold';-inkscape-font-specification:'07YasashisaGothicBold';fill:#ede4cd;fill-opacity:1"
         id="path4150" />
    </g>
    <g
       id="g4731"
       transform="matrix(0.54418726,0,0,0.54418726,87.911176,486.21467)">
      <path
         sodipodi:nodetypes="ccccccccc"
         inkscape:connector-curvature="0"
         id="path4831-6"
         d="m 108.23241,41.923361 22.8727,0 68.78758,111.300529 -30.44389,0 -48.55657,-78.565686 -2.44766,0 -48.556202,78.565686 -30.443863,0 z"
         style="color:#000000;font-style:normal;font-variant:normal;font-weight:normal;font-stretch:normal;font-size:medium;line-height:normal;font-family:sans-serif;text-indent:0;text-align:start;text-decoration:none;text-decoration-line:none;text-decoration-style:solid;text-decoration-color:#000000;letter-spacing:normal;word-spacing:normal;text-transform:none;direction:ltr;block-progression:tb;writing-mode:lr-tb;baseline-shift:baseline;text-anchor:start;white-space:normal;clip-rule:nonzero;display:inline;overflow:visible;visibility:visible;opacity:1;isolation:auto;mix-blend-mode:normal;color-interpolation:sRGB;color-interpolation-filters:linearRGB;solid-color:#000000;solid-opacity:1;fill:#ede4cd;fill-opacity:1;fill-rule:evenodd;stroke:none;stroke-width:15.78308773;stroke-linecap:butt;stroke-linejoin:bevel;stroke-miterlimit:4;stroke-dasharray:none;stroke-dashoffset:0;stroke-opacity:1;color-rendering:auto;image-rendering:auto;shape-rendering:auto;text-rendering:auto;enable-background:accumulate" />
      <path
         sodipodi:nodetypes="cccccccccc"
         inkscape:connector-curvature="0"
         id="path4807-1"
         d="m 42.699709,55.577684 19.945418,0 16.883201,27.316833 -13.199621,21.357613 -12.432638,-20.117049 -2.447647,3.64e-4 -42.6991812,69.088815 -26.3981678,0 60.348636,-97.646566 z"
         style="color:#000000;font-style:normal;font-variant:normal;font-weight:normal;font-stretch:normal;font-size:medium;line-height:normal;font-family:sans-serif;text-indent:0;text-align:start;text-decoration:none;text-decoration-line:none;text-decoration-style:solid;text-decoration-color:#000000;letter-spacing:normal;word-spacing:normal;text-transform:none;direction:ltr;block-progression:tb;writing-mode:lr-tb;baseline-shift:baseline;text-anchor:start;white-space:normal;clip-rule:nonzero;display:inline;overflow:visible;visibility:visible;opacity:1;isolation:auto;mix-blend-mode:normal;color-interpolation:sRGB;color-interpolation-filters:linearRGB;solid-color:#000000;solid-opacity:1;fill:#ede4cd;fill-opacity:1;fill-rule:evenodd;stroke:none;stroke-width:15.78188992;stroke-linecap:butt;stroke-linejoin:bevel;stroke-miterlimit:4;stroke-dasharray:none;stroke-dashoffset:0;stroke-opacity:1;color-rendering:auto;image-rendering:auto;shape-rendering:auto;text-rendering:auto;enable-background:accumulate" />
    </g>
    <g
       style="font-style:normal;font-weight:normal;font-size:121.79482269px;line-height:125%;font-family:sans-serif;letter-spacing:0px;word-spacing:0px;writing-mode:lr-tb;fill:#ede4cd;fill-opacity:1;stroke:none;stroke-width:4.00000036;stroke-linecap:butt;stroke-linejoin:miter;stroke-opacity:1;stroke-miterlimit:4;stroke-dasharray:none"
       id="text4735">
      <path
         d="m 210.00047,625.23607 q -7.85005,19.03044 -17.48421,31.04341 -9.63417,12.01296 -19.50621,18.55468 -9.87204,6.42277 -18.19786,9.03945 -8.32581,2.61669 -20.1009,3.21139 l 0,-94.31962 18.9115,0 0,71.48309 q 4.87655,-1.07046 12.01297,-6.18489 7.25535,-5.11443 13.32131,-12.84555 6.18489,-7.85006 11.41826,-19.98196 l 19.62514,0 z"
         style="font-style:normal;font-variant:normal;font-weight:normal;font-stretch:normal;font-family:'Corporate Logo Bold';-inkscape-font-specification:'Corporate Logo Bold, ';fill:#ede4cd;fill-opacity:1;stroke:none;stroke-opacity:1;stroke-width:4.00000036;stroke-miterlimit:4;stroke-dasharray:none"
         id="path4740"
         inkscape:connector-curvature="0" />
      <path
         d="m 295.16169,595.97677 q 0,-2.61669 -1.7841,-4.28185 -1.66516,-1.66517 -4.16291,-1.66517 -2.49774,0 -4.16291,1.66517 -1.66516,1.66516 -1.66516,4.28185 0,2.49774 1.66516,4.1629 1.66517,1.66517 4.16291,1.66517 2.49775,0 4.16291,-1.66517 1.7841,-1.66516 1.7841,-4.1629 z m -15.22435,-9.39629 q 3.80609,-3.80608 9.27734,-3.80608 5.47125,0 9.27734,3.92503 3.92503,3.80608 3.92503,9.27734 0,4.28184 -2.3788,7.61217 l 0,17.7221 -30.80553,0 0,67.0823 -17.7221,0 0,-67.0823 -30.4487,0 0,-19.03044 30.4487,0 0,-13.55919 17.7221,0 0,13.55919 8.44476,0 q -1.54623,-2.85457 -1.54623,-6.30383 0,-5.47126 3.80609,-9.39629 z m -36.27678,41.98592 q -0.11894,20.1009 -1.54622,33.42221 -1.30834,13.32131 -3.56821,26.40473 l -16.53269,0 q 0.11894,-0.23788 1.30834,-7.85005 1.30834,-7.61218 2.85457,-20.93349 1.54622,-13.44025 1.66516,-31.0434 l 15.81905,0 z m 33.77904,0 15.93799,0 q 0,17.60315 1.30834,31.0434 1.30835,13.32131 2.73563,20.93349 1.54622,7.61217 1.66516,7.85005 l -16.53269,0 q -2.25987,-13.08342 -3.68715,-26.40473 -1.30834,-13.32131 -1.42728,-33.42221 z"
         style="font-style:normal;font-variant:normal;font-weight:normal;font-stretch:normal;font-family:'Corporate Logo Bold';-inkscape-font-specification:'Corporate Logo Bold, ';fill:#ede4cd;fill-opacity:1;stroke:none;stroke-opacity:1;stroke-width:4.00000036;stroke-miterlimit:4;stroke-dasharray:none"
         id="path4742"
         inkscape:connector-curvature="0" />
      <path
         d="m 312.40803,647.71578 0,-18.67362 54.9504,0 0,18.67362 -54.9504,0 z"
         style="font-style:normal;font-variant:normal;font-weight:normal;font-stretch:normal;font-family:'Corporate Logo Bold';-inkscape-font-specification:'Corporate Logo Bold, ';fill:#ede4cd;fill-opacity:1;stroke:none;stroke-opacity:1;stroke-width:4.00000036;stroke-miterlimit:4;stroke-dasharray:none"
         id="path4744"
         inkscape:connector-curvature="0" />
      <path
         d="m 383.65324,689.34487 0,-99.67194 18.79256,0 0,32.11387 49.95491,0 0,18.67362 -49.95491,0 0,48.88445 -18.79256,0 z"
         style="font-style:normal;font-variant:normal;font-weight:normal;font-stretch:normal;font-family:'Corporate Logo Bold';-inkscape-font-specification:'Corporate Logo Bold, ';fill:#ede4cd;fill-opacity:1;stroke:none;stroke-opacity:1;stroke-width:4.00000036;stroke-miterlimit:4;stroke-dasharray:none"
         id="path4746"
         inkscape:connector-curvature="0" />
      <path
         d="m 532.92328,620.71634 -0.23788,0 -11.89403,62.44363 -21.17137,0 -11.77508,-62.44363 -0.23788,0 -4.28185,62.44363 -19.98196,0 9.99098,-88.96731 24.73957,0 12.25085,67.91489 0.23788,0 12.36978,-67.91489 24.62064,0 9.99098,88.96731 -20.45773,0 -4.1629,-62.44363 z"
         style="font-style:normal;font-variant:normal;font-weight:normal;font-stretch:normal;font-family:'Corporate Logo Bold';-inkscape-font-specification:'Corporate Logo Bold, ';fill:#ede4cd;fill-opacity:1;stroke:none;stroke-opacity:1;stroke-width:4.00000036;stroke-miterlimit:4;stroke-dasharray:none"
         id="path4748"
         inkscape:connector-curvature="0" />
      <path
         d="m 564.56138,683.15997 28.78354,-88.96731 22.00395,0 28.78354,88.96731 -22.00395,0 -4.87655,-19.26832 -26.28579,0 -4.87655,19.26832 -21.52819,0 z m 30.21083,-34.96843 18.55468,0 -9.1584,-36.0389 -0.23788,0 -9.1584,36.0389 z"
         style="font-style:normal;font-variant:normal;font-weight:normal;font-stretch:normal;font-family:'Corporate Logo Bold';-inkscape-font-specification:'Corporate Logo Bold, ';fill:#ede4cd;fill-opacity:1;stroke:none;stroke-opacity:1;stroke-width:4.00000036;stroke-miterlimit:4;stroke-dasharray:none"
         id="path4750"
         inkscape:connector-curvature="0" />
      <path
         d="m 676.48419,653.30597 0,29.854 -20.33879,0 0,-88.96731 24.38276,0 q 21.52818,0 31.40023,6.89854 9.99098,6.89853 9.99098,20.93348 0,31.28129 -35.68208,31.28129 l -9.7531,0 z m 0,-15.22435 7.61218,0 q 9.03945,0 13.67812,-3.68715 4.75761,-3.80609 4.75761,-11.18039 0,-6.77959 -4.40078,-9.99098 -4.28185,-3.21138 -14.03495,-3.21138 l -7.61218,0 0,28.0699 z"
         style="font-style:normal;font-variant:normal;font-weight:normal;font-stretch:normal;font-family:'Corporate Logo Bold';-inkscape-font-specification:'Corporate Logo Bold, ';fill:#ede4cd;fill-opacity:1;stroke:none;stroke-opacity:1;stroke-width:4.00000036;stroke-miterlimit:4;stroke-dasharray:none"
         id="path4752"
         inkscape:connector-curvature="0" />
    </g>
  </g>
</svg>
