<!--?xml version="1.0" encoding="utf-8"?-->
<!-- Generator: Adobe Illustrator 19.1.1, SVG Export Plug-In . SVG Version: 6.00 Build 0)  -->
<svg version="1.1" id="_x31_0" xmlns="http://www.w3.org/2000/svg" xmlns:xlink="http://www.w3.org/1999/xlink" x="0px" y="0px" viewBox="0 0 512 512" style="width: 256px; height: 256px; opacity: 1;" xml:space="preserve">
<style type="text/css">
	.st0{fill:#374149;}
</style>
<g>
	<path class="st0" d="M171.965,302.464c1.164-0.437,2.278-1.262,3.344-2.426c0.191-0.187,0.386-0.382,0.531-0.629
		c2.953-3.34,5.374-7.117,6.586-10.648c0.145-0.438,0.293-0.875,0.438-1.313c2.664-7.554,4.699-16.074,5.086-18.5
		c0.047-0.242,0.047-0.434,0.094-0.629c1.117,0.336,2.179,0.484,3.102,0.484c11.234,0,15.835-23.008,16.465-29.058
		c0.679-6.102-4.746-10.266-6.73-11.867c0.437-0.969,0.968-2.418,1.5-4.114c0.05-0.102,0.098-0.246,0.148-0.386
		c0.676-2.082,1.645-4.894,2.516-8.816c0.535-2.329,1.019-5.086,1.453-8.333c0.289-1.984,0.34-4.113,0.242-6.195
		c-0.145-4.363-1.066-8.867-2.664-12.984c-1.305-3.582-3.149-6.875-5.375-9.539l-0.047-0.05c-1.55-1.836-3.293-3.727-5.137-5.422
		c-7.262-7.023-15.836-12.691-19.855-12.691c-8.137-14.621-18.55-24.114-37.824-25.426c-1.164-0.047-2.324-0.047-3.582-0.094h-0.246
		c-14.528,0-39.035,12.496-51.528,29.542c0,0.051,0,0.051,0,0.051c-1.262,1.695-2.374,3.434-3.343,5.179
		c-1.645,3-3.149,5.813-4.406,8.477c-2.035,4.309-3.586,8.328-4.551,12.344c-0.582,1.89-0.968,3.828-1.164,5.816
		c-0.171,1.168-0.125,2.454-0.21,3.657c-0.031,0.43-0.055,0.867-0.074,1.301c-0.125,2.644-0.054,5.488,0.214,8.449
		c0.012,0.118,0.024,0.238,0.035,0.355c0.157,1.653,0.192,3.184,0.473,4.977v0.051c0.434,2.957,1.016,6.152,1.79,9.59
		c0.05,0.046,0.05,0.098,0.05,0.148c0.582,1.696,1.062,3.145,1.598,4.114c-1.938,1.602-6.73,4.262-6.152,10.317
		c0.629,6.101,4.554,30.609,15.789,30.609c1.016,0,2.074-0.152,3.23-0.484c0.008,0,0.012,0,0.012,0
		c0.199,1.942,1.214,7.457,3.297,13.074c0.582,1.648,1.258,3.73,1.984,5.91c0.145,0.434,0.294,0.825,0.438,1.262
		c1.211,3.489,3.485,7.262,6.344,10.508c0.293,0.336,0.629,0.68,0.918,1.016c1.066,1.113,2.184,1.938,3.344,2.374v7.262v13.609
		c-2.469,2.278-11.285,9.254-26.782,17.195c-21.308,10.895-46.202,23.586-51.726,28.622c-4.309,3.879-9.734,11.918-14.238,22.469
		c-0.969,2.332-1.937,4.754-2.808,7.316c-0.825,2.325-1.598,4.746-2.227,7.266c-0.874,3.051-1.55,6.196-2.133,9.442
		c-1.066,6.203,2.715,12.156,8.766,13.707c35.5,9.062,79.524,14.438,127.231,14.438c47.656,0,91.629-5.375,127.082-14.387
		c6.102-1.546,9.879-7.554,8.766-13.758c-0.578-3.246-1.309-6.39-2.129-9.442c-0.68-2.519-1.406-4.941-2.278-7.266
		c-0.824-2.562-1.793-4.984-2.808-7.316c-4.458-10.551-9.879-18.543-14.192-22.469c-5.519-5.086-30.511-17.77-51.82-28.622
		c-15.547-7.992-24.313-14.918-26.832-17.195v-13.461V302.464z" style="fill: rgb(223, 86, 86);"></path>
	<path class="st0" d="M469.336,101.8c-25.969-21.66-60.164-33.59-96.293-33.59c-36.126,0-70.325,11.93-96.29,33.59
		c-27.511,22.958-42.664,53.934-42.664,87.23c0,42.157,25.274,80.938,65.688,102.731l3.175,22.617
		c1.469,10.461,8.406,19.344,18.195,23.301c3.582,1.45,7.344,2.156,11.082,2.156c6.492,0,12.914-2.137,18.199-6.262l30.625-23.918
		c33.149-1.629,64.242-13.344,88.282-33.394c27.512-22.95,42.664-53.93,42.664-87.231C512,155.734,496.848,124.758,469.336,101.8z
		 M373.043,280.289c-0.786,0-1.566-0.039-2.352-0.055l-25.832,20.176l-12.562,9.711l-0.633-4.098l-1.234-8.602l-3.606-25.68
		c-16.062-6.258-29.984-15.687-40.652-27.297c-0.199-0.218-0.41-0.426-0.61-0.641c-1.07-1.187-2.07-2.426-3.07-3.656
		c-0.469-0.578-0.965-1.133-1.414-1.718c-0.774-1-1.481-2.035-2.207-3.063c-0.59-0.836-1.211-1.656-1.77-2.504
		c-0.625-0.949-1.188-1.934-1.77-2.902c-0.57-0.942-1.164-1.871-1.691-2.829c-0.633-1.14-1.192-2.316-1.766-3.484
		c-0.391-0.789-0.813-1.566-1.176-2.367c-0.817-1.793-1.554-3.621-2.238-5.469c-0.058-0.164-0.133-0.328-0.195-0.488
		c-3-8.325-4.614-17.153-4.614-26.294c0-50.394,48.977-91.254,109.391-91.254c60.418,0,109.394,40.859,109.394,91.254
		C482.438,239.43,433.461,280.289,373.043,280.289z" style="fill: rgb(223, 86, 86);"></path>
	<path class="st0" d="M403.438,211.176c0.77-2.238,1.332-4.668,1.679-7.293c0.34-2.625,0.555-5.485,0.641-8.582
		c0.09-3.098,0.129-6.496,0.129-10.195c0-4.386-0.062-8.343-0.191-11.871c-0.054-1.469-0.32-2.683-0.457-4.054
		c-0.062-0.652-0.133-1.293-0.219-1.926c-0.16-1.23-0.187-2.618-0.422-3.766c-0.606-2.969-1.527-5.699-2.774-8.195
		c-1.25-2.493-3.035-4.902-5.355-7.227c-3.098-3.098-6.629-5.484-10.582-7.16c-3.961-1.679-8.605-2.519-13.941-2.519
		s-9.977,0.84-13.938,2.519c-3.961,1.676-7.531,4.062-10.711,7.16c-2.324,2.325-4.11,4.734-5.351,7.227
		c-1.25,2.496-2.153,5.226-2.715,8.195c-0.558,2.969-0.906,6.214-1.031,9.746c-0.129,3.528-0.195,7.485-0.195,11.871
		c0,4.387,0.066,8.348,0.195,11.875c0.125,3.527,0.473,6.774,1.031,9.742c0.562,2.969,1.465,5.699,2.715,8.195
		c1.242,2.496,3.027,4.902,5.351,7.226c3.18,3.098,6.75,5.485,10.711,7.16c3.961,1.68,8.602,2.52,13.938,2.52
		c3.702,0,7.078-0.434,10.133-1.294c3.05-0.859,5.824-2.062,8.324-3.613l8.262,8.004l9.418-9.422l-7.871-7.874
		C401.586,215.563,402.664,213.414,403.438,211.176z M387.625,196.398c-0.176,2.356-0.55,4.332-1.043,6.086
		c-0.133,0.375-0.21,0.797-0.37,1.148l-6.794-6.797v-0.004l-0.117-0.113l-9.422,9.55l6.625,6.512l1.347,1.375
		c-1.714,1.106-3.683,1.664-5.906,1.664c-2.497,0-4.711-0.473-6.645-1.418c-1.938-0.949-3.59-2.152-4.969-3.613
		c-0.859-0.946-1.574-2-2.129-3.164c-0.562-1.161-1.016-2.664-1.355-4.516c-0.348-1.851-0.582-4.214-0.711-7.102
		c-0.129-2.878-0.191-6.515-0.191-10.902c0-4.386,0.062-8.019,0.191-10.906c0.129-2.878,0.363-5.266,0.711-7.16
		c0.339-1.894,0.793-3.422,1.355-4.582c0.554-1.161,1.27-2.215,2.129-3.161c1.379-1.465,3.031-2.648,4.969-3.55
		c1.934-0.902,4.148-1.355,6.645-1.355c2.492,0,4.71,0.453,6.648,1.355c1.938,0.902,3.547,2.086,4.84,3.55
		c0.855,0.946,1.566,2,2.129,3.161c0.558,1.16,1.012,2.687,1.352,4.582c0.347,1.894,0.605,4.282,0.777,7.16
		c0.168,2.887,0.258,6.52,0.258,10.906C387.949,189.75,387.84,193.516,387.625,196.398z" style="fill: rgb(223, 86, 86);"></path>
</g>
</svg>
