<?xml version="1.0" encoding="UTF-8" standalone="no"?>
<!-- Created with Inkscape (http://www.inkscape.org/) -->

<svg
   xmlns:dc="http://purl.org/dc/elements/1.1/"
   xmlns:cc="http://creativecommons.org/ns#"
   xmlns:rdf="http://www.w3.org/1999/02/22-rdf-syntax-ns#"
   xmlns:svg="http://www.w3.org/2000/svg"
   xmlns="http://www.w3.org/2000/svg"
   xmlns:sodipodi="http://sodipodi.sourceforge.net/DTD/sodipodi-0.dtd"
   xmlns:inkscape="http://www.inkscape.org/namespaces/inkscape"
   width="158.2182mm"
   height="41.907921mm"
   viewBox="0 0 560.61567 148.49263"
   id="svg2"
   version="1.1"
   inkscape:version="0.91 r13725"
   sodipodi:docname="title.svg">
  <defs
     id="defs4">
    <clipPath
       clipPathUnits="userSpaceOnUse"
       id="clipPath34">
      <path
         d="m 0,200 200,0 0,-200 -200,0 0,200 z"
         id="path36"
         inkscape:connector-curvature="0" />
    </clipPath>
  </defs>
  <sodipodi:namedview
     id="base"
     pagecolor="#ffffff"
     bordercolor="#666666"
     borderopacity="1.0"
     inkscape:pageopacity="0.0"
     inkscape:pageshadow="2"
     inkscape:zoom="0.98994949"
     inkscape:cx="91.948808"
     inkscape:cy="162.79124"
     inkscape:document-units="px"
     inkscape:current-layer="layer1"
     showgrid="false"
     fit-margin-top="0"
     fit-margin-left="0"
     fit-margin-right="0"
     fit-margin-bottom="0"
     inkscape:window-width="1822"
     inkscape:window-height="1051"
     inkscape:window-x="1911"
     inkscape:window-y="-9"
     inkscape:window-maximized="1" />
  <metadata
     id="metadata7">
    <rdf:RDF>
      <cc:Work
         rdf:about="">
        <dc:format>image/svg+xml</dc:format>
        <dc:type
           rdf:resource="http://purl.org/dc/dcmitype/StillImage" />
        <dc:title></dc:title>
      </cc:Work>
    </rdf:RDF>
  </metadata>
  <g
     inkscape:label="レイヤー 1"
     inkscape:groupmode="layer"
     id="layer1"
     transform="translate(-55.567052,-451.93479)">
    <g
       id="g30"
       transform="matrix(1.3684898,0,0,-1.3684898,-8.0562279,663.78604)">
      <g
         id="g32"
         clip-path="url(#clipPath34)">
        <g
           id="g38"
           transform="translate(101.2588,52.3232)">
          <path
             d="m 0,0 c -26.471,0 -47.93,21.459 -47.93,47.929 0,0.359 0.019,0.714 0.027,1.071 l -0.012,-0.006 -6.792,-3.176 c 1.263,-28.844 25.038,-51.843 54.194,-51.843 28.975,0 52.641,22.714 54.172,51.308 -1.558,0.523 -3.52,1.379 -5.735,2.457 -0.102,-26.384 -21.517,-47.74 -47.924,-47.74"
             style="fill:#53a243;fill-opacity:1;fill-rule:nonzero;stroke:none"
             id="path40"
             inkscape:connector-curvature="0" />
        </g>
        <g
           id="g42"
           transform="translate(100.7456,154.8066)">
          <path
             d="m 0,0 c -29.964,0 -54.254,-24.291 -54.254,-54.254 0,-0.809 0.025,-1.611 0.061,-2.411 l 6.792,3.175 0.011,0.006 c 0.572,25.975 21.791,46.859 47.903,46.859 26.471,0 47.929,-21.458 47.929,-47.929 0,-0.064 -0.004,-0.126 -0.005,-0.189 2.215,-1.078 4.177,-1.935 5.735,-2.457 0.052,0.975 0.082,1.957 0.082,2.946 0,29.963 -24.291,54.254 -54.254,54.254"
             style="fill:#86d0d8;fill-opacity:1;fill-rule:nonzero;stroke:none"
             id="path44"
             inkscape:connector-curvature="0" />
        </g>
        <g
           id="g46"
           transform="translate(101.123,144.9819)">
          <path
             d="m 0,0 c -24.583,0 -44.623,-19.17 -45.64,-43.193 0.517,0.271 13.011,6.851 27.866,14.734 0,0 10.948,-2.166 12.669,-2.23 l 13.607,8.253 c 0,0 22.784,-14.743 37.17,-21.99 -0.37,24.596 -20.67,44.426 -45.672,44.426"
             style="fill:#86d0d8;fill-opacity:1;fill-rule:nonzero;stroke:none"
             id="path48"
             inkscape:connector-curvature="0" />
        </g>
        <g
           id="g50"
           transform="translate(96.0176,114.293)">
          <path
             d="m 0,0 c -1.721,0.064 -12.669,2.23 -12.669,2.23 -14.854,-7.883 -27.349,-14.463 -27.865,-14.734 -0.027,-0.636 -0.049,-1.272 -0.049,-1.914 0,-24.912 20.456,-45.107 45.688,-45.107 25.234,0 45.69,20.195 45.69,45.107 0,0.229 -0.015,0.453 -0.018,0.681 -14.385,7.247 -37.17,21.99 -37.17,21.99 l -13.607,-8.253 z"
             style="fill:#53a243;fill-opacity:1;fill-rule:nonzero;stroke:none"
             id="path52"
             inkscape:connector-curvature="0" />
        </g>
        <g
           id="g54"
           transform="translate(104.5723,112.2178)">
          <path
             d="m 0,0 c 0,0 7.089,4.97 4.726,-0.702 -2.364,-5.671 -10.397,-4.358 -13.076,-3.99 -2.678,0.367 -4.568,1.628 -4.568,1.628 0,0 1.517,-0.735 8.714,0.893 l 4.204,2.171 z"
             style="fill:#2f5228;fill-opacity:1;fill-rule:nonzero;stroke:none"
             id="path56"
             inkscape:connector-curvature="0" />
        </g>
        <g
           id="g58"
           transform="translate(123.75,94.5215)">
          <path
             d="m 0,0 c 0,-0.265 -0.215,-0.479 -0.479,-0.479 -0.265,0 -0.479,0.214 -0.479,0.479 0,0.265 0.214,0.479 0.479,0.479 0.264,0 0.479,-0.214 0.479,-0.479"
             style="fill:#ffffff;fill-opacity:1;fill-rule:nonzero;stroke:none"
             id="path60"
             inkscape:connector-curvature="0" />
        </g>
        <g
           id="g62"
           transform="translate(123.75,92.6055)">
          <path
             d="m 0,0 c 0,-0.265 -0.215,-0.479 -0.479,-0.479 -0.265,0 -0.479,0.214 -0.479,0.479 0,0.265 0.214,0.479 0.479,0.479 0.264,0 0.479,-0.214 0.479,-0.479"
             style="fill:#ffffff;fill-opacity:1;fill-rule:nonzero;stroke:none"
             id="path64"
             inkscape:connector-curvature="0" />
        </g>
        <g
           id="g66"
           transform="translate(109.7041,119.2314)">
          <path
             d="m 0,0 c 0.082,1.255 0.154,2.356 0.237,3.63 -0.616,-0.091 -1.076,-0.159 -1.634,-0.242 l 0,-1.675 0,-1.713 1.397,0 z m -1.562,-4.901 c 0.022,-0.132 0.015,-0.363 0.073,-0.381 1.172,-0.356 2.351,-0.688 3.65,-1.059 0.156,0.864 0.279,1.547 0.418,2.316 -0.796,0.052 -1.35,0.088 -1.905,0.124 -0.695,0.071 -1.389,0.142 -2.182,0.222 -0.023,-0.526 -0.039,-0.874 -0.054,-1.222 m -5.185,4.86 c 0.096,2.155 0.191,4.311 0.287,6.465 l -0.012,-0.012 c 1.297,1.784 3.029,2.331 5.253,1.68 0.073,0.87 0.138,1.633 0.208,2.464 l 6.573,0 c 0.055,-0.926 0.105,-1.741 0.161,-2.642 0.454,-0.032 0.86,-0.066 1.266,-0.086 1.715,-0.086 2.395,-0.755 2.347,-2.439 -0.03,-1.067 -0.174,-2.13 -0.267,-3.196 -0.105,-0.437 -0.211,-0.874 -0.352,-1.466 -1.336,0.077 -2.572,0.148 -3.971,0.228 0.069,0.87 0.124,1.548 0.184,2.29 -0.326,0.026 -0.69,0.055 -1.19,0.095 l 0,-3.626 c 0.712,-0.104 1.531,-0.231 2.352,-0.341 1.655,-0.222 2.502,-1.293 2.227,-2.923 -0.215,-1.278 -0.511,-2.543 -0.772,-3.82 0.618,-0.315 1.178,-0.6 1.827,-0.931 -0.649,-1.344 -0.751,-2.788 -1.803,-3.848 -0.653,0.169 -1.229,0.318 -1.891,0.49 -0.229,-0.308 -0.475,-0.637 -0.719,-0.968 -0.435,-0.592 -1.047,-0.84 -1.729,-0.662 -1.344,0.351 -2.669,0.785 -4.213,1.247 0.459,0.855 0.838,1.564 1.269,2.366 -0.467,0.121 -0.909,0.235 -1.35,0.349 -0.36,0.12 -0.72,0.24 -1.103,0.368 -0.114,-0.423 -0.186,-0.688 -0.257,-0.953 -0.278,-0.873 -0.557,-1.746 -0.802,-2.514 -1.322,-0.648 -2.674,-0.418 -5.22,0.845 0.08,0.515 0.168,1.082 0.256,1.649 0.274,0.933 0.547,1.867 0.821,2.8 0.206,2.364 0.413,4.728 0.62,7.091"
             style="fill:#ffffff;fill-opacity:1;fill-rule:nonzero;stroke:none"
             id="path68"
             inkscape:connector-curvature="0" />
        </g>
        <g
           id="g70"
           transform="translate(91.9033,90.7617)">
          <path
             d="m 0,0 c -0.195,0.116 -0.459,0.275 -0.754,0.451 -0.119,1.438 -0.238,2.869 -0.36,4.345 0.558,0.143 0.945,0.242 1.474,0.378 l 0,4.628 c 1.637,-0.121 3.091,-0.228 4.642,-0.343 l 0,-3.81 c 0.442,-0.028 0.793,-0.049 1.303,-0.082 0.119,1.644 0.233,3.212 0.365,5.032 1.419,-0.094 2.788,-0.183 4.317,-0.284 l 0,-3.914 c 0.156,-0.155 0.209,-0.257 0.28,-0.269 2.414,-0.422 2.934,-0.992 2.882,-3.444 -0.045,-2.157 -0.102,-4.322 -0.333,-6.464 -0.11,-1.03 -0.632,-2.015 -0.944,-2.947 -1.573,-0.381 -2.485,0.482 -3.652,1.2 1.206,1.928 1.044,4.029 1.001,6.182 -0.206,0.057 -0.373,0.134 -0.543,0.143 -0.176,0.01 -0.356,-0.047 -0.636,-0.09 -0.084,-1.053 -0.171,-2.072 -0.246,-3.093 -0.074,-1.015 -0.134,-2.03 -0.213,-3.243 -0.967,0.085 -1.727,0.152 -2.663,0.234 0.108,1.999 0.21,3.897 0.315,5.841 l -1.363,0 c -0.101,-1.458 -0.234,-2.851 -0.284,-4.248 -0.048,-1.351 -0.01,-2.706 -0.01,-4.111 2.89,-0.527 5.72,-0.497 8.677,0.041 0.263,-1.571 0.804,-2.956 0.291,-4.462 -1.684,-0.46 -3.274,-0.671 -4.936,-0.508 -1.912,0.188 -3.837,0.271 -5.759,0.349 -2.222,0.09 -3.083,0.911 -3.05,3.099 0.025,1.549 0.157,3.096 0.191,4.645 0.035,1.548 0.008,3.098 0.008,4.744"
             style="fill:#ffffff;fill-opacity:1;fill-rule:nonzero;stroke:none"
             id="path72"
             inkscape:connector-curvature="0" />
        </g>
        <g
           id="g74"
           transform="translate(117.2412,77.5059)">
          <path
             d="m 0,0 0,3.466 4.214,0 c 0.038,0.477 0.064,0.804 0.098,1.243 l -3.292,0 c -0.061,0.956 -0.116,1.818 -0.183,2.89 1.106,0.108 2.101,0.207 3.184,0.313 l 0,0.974 c -0.971,0.095 -1.96,0.192 -2.842,0.279 -0.34,0.771 -0.982,11.607 -0.766,12.633 0.09,0.425 0.377,0.807 0.592,1.245 3.373,0.194 6.644,0.43 9.92,0.554 2.169,0.082 3.463,-1.147 3.546,-3.279 0.114,-2.955 0.181,-5.912 0.226,-8.869 0.026,-1.722 -0.459,-2.186 -2.136,-2.205 -0.888,-0.009 -1.775,-10e-4 -2.749,-10e-4 l 0,-1.057 4.238,0 c 0.056,-0.938 0.108,-1.794 0.173,-2.856 -1.443,-0.14 -2.773,-0.268 -4.21,-0.408 -0.028,-0.37 -0.056,-0.763 -0.097,-1.325 l 5.018,0 0,-3.597 -14.934,0 z"
             style="fill:#ffffff;fill-opacity:1;fill-rule:nonzero;stroke:none"
             id="path76"
             inkscape:connector-curvature="0" />
        </g>
        <g
           id="g78"
           transform="translate(87.0508,115.1367)">
          <path
             d="m 0,0 -2.516,0 c -0.068,-1.099 -0.134,-2.171 -0.21,-3.393 0.699,0.278 1.159,0.461 1.665,0.662 0.373,-0.428 0.718,-0.824 1.061,-1.219 l 0,3.95 z m -6.972,0.606 c 0.104,1.159 0.208,2.318 0.335,3.73 0.487,0.168 1.016,0.514 1.54,0.506 2.567,-0.04 5.143,-0.07 7.691,-0.333 0.81,-0.084 1.547,-0.879 2.317,-1.348 l 0,-6.943 c 0.498,-0.059 0.934,-0.112 1.527,-0.182 l 0,-4.596 c -1.412,-0.187 -2.87,-0.473 -4.339,-0.547 -1.288,-0.064 -2.078,0.811 -2.138,2.103 -0.017,0.362 0.036,0.729 0.065,1.263 -0.464,-0.179 -0.786,-0.311 -1.113,-0.426 -0.339,-0.118 -0.684,-0.218 -1.047,-0.333 -0.279,0.436 -0.499,0.78 -0.725,1.136 -0.481,-1.304 -0.955,-2.591 -1.523,-4.131 -1.574,0.526 -2.906,0.971 -4.276,1.428 0.138,0.595 0.231,0.995 0.324,1.395 l -0.015,-0.024 c 0.095,0.235 0.189,0.47 0.284,0.706 l -0.001,-0.01 c 1.191,2.065 0.984,4.362 1.094,6.606"
             style="fill:#ffffff;fill-opacity:1;fill-rule:nonzero;stroke:none"
             id="path80"
             inkscape:connector-curvature="0" />
        </g>
        <g
           id="g82"
           transform="translate(107.4053,85.1055)">
          <path
             d="m 0,0 c 0.978,0.189 1.746,0.338 2.561,0.496 l 0,3.454 c -0.632,0.113 -1.215,0.218 -1.841,0.329 l 0,3.354 c 0.612,0.082 1.15,0.153 1.787,0.238 l 0,2.68 c -0.643,0.063 -1.318,0.131 -2.025,0.202 l 0,4.556 c 3.103,-0.1 6.055,-0.196 8.983,-0.29 l 0,-4.559 c -0.627,-0.059 -1.085,-0.102 -1.634,-0.152 l 0,-2.652 c 0.483,-0.119 0.967,-0.239 1.48,-0.366 l 0,-3.287 c -0.485,-0.107 -0.879,-0.194 -1.373,-0.304 l 0,-2.548 1.89,0 0,-4.172 c -2.828,-0.782 -5.714,-1.144 -8.643,-1.607 -0.901,1.447 -0.881,2.987 -1.185,4.628"
             style="fill:#ffffff;fill-opacity:1;fill-rule:nonzero;stroke:none"
             id="path84"
             inkscape:connector-curvature="0" />
        </g>
        <g
           id="g86"
           transform="translate(82.1538,80.6836)">
          <path
             d="m 0,0 c -0.262,1.506 -0.492,2.828 -0.749,4.306 0.919,0.165 1.685,0.302 2.561,0.461 l 0,5.053 c -0.602,0.096 -1.183,0.189 -1.909,0.305 l 0,4.472 c 0.63,0.094 1.12,0.168 1.743,0.26 l 0,5.069 c 1.75,0.392 3.358,-0.016 5.18,-0.059 l 0,-5.123 c 0.554,-0.253 0.915,-0.418 1.274,-0.582 l 0,-4.146 c -0.369,-0.198 -0.683,-0.366 -0.94,-0.502 l 0,-3.903 c 0.491,-0.066 0.897,-0.12 1.41,-0.188 l 0,-4.401 c -2.453,-0.46 -4.954,-0.949 -7.465,-1.378 -0.311,-0.053 -0.676,0.21 -1.105,0.356"
             style="fill:#ffffff;fill-opacity:1;fill-rule:nonzero;stroke:none"
             id="path88"
             inkscape:connector-curvature="0" />
        </g>
        <g
           id="g90"
           transform="translate(78.9844,109.1367)">
          <path
             d="m 0,0 0.001,0.01 c -0.094,-0.236 -0.189,-0.471 -0.283,-0.706 l 0.014,0.024 c -1.358,-0.25 -2.71,-0.553 -4.077,-0.734 -1.652,-0.219 -3.317,-0.335 -5.194,-0.517 -0.191,1.118 -0.357,2.089 -0.523,3.059 0.024,0.357 0.048,0.715 0.075,1.121 0.91,0.202 1.717,0.382 2.59,0.576 l 0,3.117 c -0.777,0.131 -1.538,0.259 -2.49,0.42 0.133,1.339 0.255,2.563 0.402,4.044 3.241,-0.22 6.382,-0.433 9.55,-0.647 l 0,-3.493 c -0.699,-0.284 -1.397,-0.568 -2.329,-0.947 -0.056,-0.511 -0.137,-1.257 -0.235,-2.15 l 2.499,0 0,-3.177 z"
             style="fill:#ffffff;fill-opacity:1;fill-rule:nonzero;stroke:none"
             id="path92"
             inkscape:connector-curvature="0" />
        </g>
        <g
           id="g94"
           transform="translate(100.813,109.3174)">
          <path
             d="m 0,0 c -0.298,-0.918 -0.596,-1.836 -0.915,-2.818 -2.043,-0.107 -3.731,0.521 -5.376,1.258 0.675,2.535 1.305,4.904 2.003,7.529 1.635,-0.318 3.285,-0.637 5.086,-0.987 -0.116,-0.936 -0.211,-1.705 -0.305,-2.474 -0.164,-0.836 -0.329,-1.672 -0.493,-2.508"
             style="fill:#ffffff;fill-opacity:1;fill-rule:nonzero;stroke:none"
             id="path96"
             inkscape:connector-curvature="0" />
        </g>
        <g
           id="g98"
           transform="translate(94.48,117.7334)">
          <path
             d="m 0,0 c 0.521,1.514 1.042,3.027 1.646,4.783 1.8,-0.637 3.336,-1.181 4.978,-1.762 -0.279,-0.951 -0.498,-1.696 -0.716,-2.441 -0.389,-0.715 -0.779,-1.43 -1.206,-2.216 -1.412,0.491 -2.744,0.953 -4.075,1.416 l -0.623,0.227 -0.004,-0.007 z"
             style="fill:#ffffff;fill-opacity:1;fill-rule:nonzero;stroke:none"
             id="path100"
             inkscape:connector-curvature="0" />
        </g>
        <g
           id="g102"
           transform="translate(71.7646,130.4883)">
          <path
             d="m 0,0 c 1.929,-0.496 3.495,-0.897 5.083,-1.305 l 0,-1.298 c 0.969,0.048 1.894,0.094 2.962,0.147 1.146,-0.686 0.29,-1.997 0.72,-3.106 0.752,1.788 1.467,3.489 2.286,5.438 1.548,-0.343 3.045,-0.616 4.498,-1.038 0.39,-0.114 0.649,-0.682 1.103,-1.193 1.258,0.064 2.698,0.138 4.346,0.222 1.273,-1.104 0.256,-2.685 0.761,-4.263 -1.178,-0.074 -2.09,-0.131 -3.169,-0.199 0.479,-0.573 0.899,-1.077 1.382,-1.655 -0.928,-0.795 -1.397,-2.098 -3.018,-1.96 -0.53,0.636 -1.089,1.308 -1.738,2.088 0.409,0.444 0.74,0.804 1.134,1.231 l -1.859,0 c -0.197,-0.58 -0.377,-1.15 -0.584,-1.711 -0.253,-0.685 -0.742,-1.172 -1.488,-1.008 -1.443,0.318 -2.862,0.749 -4.371,1.154 0.072,0.695 0.127,1.227 0.19,1.834 -0.497,-0.082 -0.942,-0.155 -1.546,-0.254 0.411,-0.516 0.765,-0.96 1.299,-1.63 -0.844,-0.658 -1.636,-1.276 -2.499,-1.95 -0.693,0.793 -1.204,1.378 -1.83,2.095 0.488,0.515 0.917,0.967 1.397,1.473 l -1.413,0 c -1.182,-0.891 -0.599,-2.966 -2.538,-3.293 -1.473,0.465 -3.046,0.961 -4.765,1.503 1.28,3.037 2.448,5.81 3.657,8.678"
             style="fill:#ffffff;fill-opacity:1;fill-rule:nonzero;stroke:none"
             id="path104"
             inkscape:connector-curvature="0" />
        </g>
        <g
           id="g106"
           transform="translate(103.2441,125.6558)">
          <path
             d="m 0,0 c -1.188,-1.104 -2.376,-2.209 -3.425,-3.184 -1.342,1.334 -2.674,2.66 -3.932,3.911 0.965,1.005 2.105,2.192 3.399,3.541 0.397,-0.295 0.918,-0.647 1.399,-1.047 0.609,-0.507 1.15,-1.101 1.786,-1.567 0.595,-0.436 0.849,-0.954 0.761,-1.667 l 0.012,0.013 z"
             style="fill:#ffffff;fill-opacity:1;fill-rule:nonzero;stroke:none"
             id="path108"
             inkscape:connector-curvature="0" />
        </g>
        <g
           id="g110"
           transform="translate(125.3262,97.9453)">
          <path
             d="m 0,0 c 0,0.997 -0.618,0.698 -0.618,0.698 0,0 -0.723,-0.381 -0.958,-1.486 l 0.958,-0.493 0.618,0.472 0,0.809"
             style="fill:#009449;fill-opacity:1;fill-rule:nonzero;stroke:none"
             id="path112"
             inkscape:connector-curvature="0" />
        </g>
        <g
           id="g114"
           transform="translate(119.1035,94.0049)">
          <path
             d="m 0,0 c 2.048,3.859 3.623,3.466 3.623,3.466 l 1.575,0.012 1.025,0.618 c 0,0 4.332,0.158 4.882,-2.048 0.552,-2.205 0.789,-4.884 -1.968,-6.065 -2.757,-1.181 -4.018,-1.418 -6.302,-1.024 0,0 -2.284,1.575 -2.835,2.757 -0.552,1.181 0,2.284 0,2.284"
             style="fill:#ff9b00;fill-opacity:1;fill-rule:nonzero;stroke:none"
             id="path116"
             inkscape:connector-curvature="0" />
        </g>
        <g
           id="g118"
           transform="translate(122.4619,96.0361)">
          <path
             d="m 0,0 c 0,-0.174 -0.141,-0.314 -0.314,-0.314 -0.173,0 -0.314,0.14 -0.314,0.314 0,0.174 0.141,0.314 0.314,0.314 0.173,0 0.314,-0.14 0.314,-0.314"
             style="fill:#ffffff;fill-opacity:1;fill-rule:nonzero;stroke:none"
             id="path120"
             inkscape:connector-curvature="0" />
        </g>
        <g
           id="g122"
           transform="translate(122.1475,94.293)">
          <path
             d="m 0,0 c 0,-0.173 -0.141,-0.313 -0.313,-0.313 -0.174,0 -0.315,0.14 -0.315,0.313 0,0.174 0.141,0.314 0.315,0.314 0.172,0 0.313,-0.14 0.313,-0.314"
             style="fill:#ffffff;fill-opacity:1;fill-rule:nonzero;stroke:none"
             id="path124"
             inkscape:connector-curvature="0" />
        </g>
        <g
           id="g126"
           transform="translate(123.1055,95.251)">
          <path
             d="m 0,0 c 0,-0.173 -0.141,-0.313 -0.313,-0.313 -0.174,0 -0.315,0.14 -0.315,0.313 0,0.174 0.141,0.314 0.315,0.314 0.172,0 0.313,-0.14 0.313,-0.314"
             style="fill:#ffffff;fill-opacity:1;fill-rule:nonzero;stroke:none"
             id="path128"
             inkscape:connector-curvature="0" />
        </g>
      </g>
    </g>
    <text
       xml:space="preserve"
       style="font-style:normal;font-weight:normal;font-size:105.41400146px;line-height:125%;font-family:sans-serif;letter-spacing:0px;word-spacing:0px;writing-mode:lr-tb;fill:#000000;fill-opacity:1;stroke:none;stroke-width:1px;stroke-linecap:butt;stroke-linejoin:miter;stroke-opacity:1"
       x="213.51976"
       y="563.56653"
       id="text4240"
       sodipodi:linespacing="125%"><tspan
         sodipodi:role="line"
         id="tspan4242"
         x="213.51976"
         y="563.56653"
         style="font-style:normal;font-variant:normal;font-weight:normal;font-stretch:normal;font-family:'07YasashisaGothicBold';-inkscape-font-specification:'07YasashisaGothicBold'">つくちり</tspan></text>
  </g>
</svg>
