<?xml version="1.0" encoding="UTF-8" standalone="no"?>
<!-- Created with Inkscape (http://www.inkscape.org/) -->

<svg
   xmlns:dc="http://purl.org/dc/elements/1.1/"
   xmlns:cc="http://creativecommons.org/ns#"
   xmlns:rdf="http://www.w3.org/1999/02/22-rdf-syntax-ns#"
   xmlns:svg="http://www.w3.org/2000/svg"
   xmlns="http://www.w3.org/2000/svg"
   xmlns:sodipodi="http://sodipodi.sourceforge.net/DTD/sodipodi-0.dtd"
   xmlns:inkscape="http://www.inkscape.org/namespaces/inkscape"
   id="svg2"
   version="1.1"
   inkscape:version="0.91 r13725"
   xml:space="preserve"
   width="153.93907mm"
   height="61.787762mm"
   viewBox="0 0 545.4534 218.93302"
   sodipodi:docname="toptxt.svg"><metadata
     id="metadata8"><rdf:RDF><cc:Work
         rdf:about=""><dc:format>image/svg+xml</dc:format><dc:type
           rdf:resource="http://purl.org/dc/dcmitype/StillImage" /><dc:title></dc:title></cc:Work></rdf:RDF></metadata><defs
     id="defs6" /><sodipodi:namedview
     pagecolor="#ffffff"
     bordercolor="#666666"
     borderopacity="1"
     objecttolerance="10"
     gridtolerance="10"
     guidetolerance="10"
     inkscape:pageopacity="0"
     inkscape:pageshadow="2"
     inkscape:window-width="1822"
     inkscape:window-height="1051"
     id="namedview4"
     showgrid="false"
     inkscape:zoom="0.6675088"
     inkscape:cx="160.53951"
     inkscape:cy="191.20383"
     inkscape:window-x="1911"
     inkscape:window-y="-9"
     inkscape:window-maximized="1"
     inkscape:current-layer="g10"
     units="mm"
     inkscape:snap-bbox="true"
     inkscape:bbox-paths="true"
     inkscape:bbox-nodes="true"
     inkscape:snap-bbox-edge-midpoints="true"
     inkscape:snap-bbox-midpoints="true"
     inkscape:object-paths="true"
     inkscape:object-nodes="true"
     inkscape:snap-smooth-nodes="true"
     inkscape:snap-midpoints="true"
     inkscape:snap-intersection-paths="true"
     inkscape:snap-object-midpoints="true"
     inkscape:snap-center="true"
     inkscape:snap-page="true"
     inkscape:snap-text-baseline="true"
     inkscape:snap-global="true"
     fit-margin-top="0"
     fit-margin-left="0"
     fit-margin-right="0"
     fit-margin-bottom="0"><sodipodi:guide
       position="1022.8497,1440.8404"
       orientation="0,-1052.3622"
       id="guide4494" /><sodipodi:guide
       position="-29.512437,1440.8404"
       orientation="1488.189,0"
       id="guide4496" /><sodipodi:guide
       position="1000.704,-25.202935"
       orientation="22.145669,0"
       id="guide4197" /><sodipodi:guide
       position="1000.704,-47.348605"
       orientation="0,22.145691"
       id="guide4199" /><sodipodi:guide
       position="1022.8497,-47.348605"
       orientation="-22.145669,0"
       id="guide4201" /><sodipodi:guide
       position="1022.8497,-25.202935"
       orientation="0,-22.145691"
       id="guide4203" /><sodipodi:guide
       position="-29.512437,-25.202935"
       orientation="22.145669,0"
       id="guide4284" /><sodipodi:guide
       position="-29.512437,-47.348605"
       orientation="0,22.1457"
       id="guide4286" /><sodipodi:guide
       position="-7.3667381,-47.348605"
       orientation="-22.145669,0"
       id="guide4288" /><sodipodi:guide
       position="-7.3667381,-25.202935"
       orientation="0,-22.1457"
       id="guide4290" /></sodipodi:namedview><g
     id="g10"
     inkscape:groupmode="layer"
     inkscape:label="____________________________________"
     transform="matrix(1.25,0,0,-1.25,-29.512439,266.28165)"><g
       transform="scale(1,-1)"
       style="font-style:normal;font-weight:normal;font-size:82.10113525px;line-height:125%;font-family:sans-serif;letter-spacing:0px;word-spacing:0px;writing-mode:tb-rl;fill:#ffffff;fill-opacity:1;stroke:none;stroke-width:1px;stroke-linecap:butt;stroke-linejoin:miter;stroke-opacity:1"
       id="text4257"><path
         d="m 80.335101,-165.15971 q 5.532205,12.50759 19.763599,20.32484 l -0.16035,0.64141 q -4.129109,0.12027 -8.819457,3.88858 -8.458662,-9.26043 -12.146799,-18.64113 -3.327341,-8.53883 -4.169199,-20.76581 -2.726014,1.0423 -5.331763,1.80398 l 0.160354,9.62123 q 0.360796,21.20678 0.641415,24.33368 0.08018,0.76168 0.08018,1.28283 0,1.52336 -1.122476,2.56566 -1.282831,1.20266 -2.966545,1.20266 -2.285042,0 -2.285042,-2.32513 0,-0.0802 0,-0.40089 0.481062,-8.85954 0.761681,-35.0373 -3.36743,0.76168 -6.614594,1.0423 l -0.08018,-0.52115 q 14.391752,-5.73265 23.451741,-12.54768 2.204864,-1.64363 3.60796,-3.40752 l 5.371851,5.2115 q 0.440973,0.48106 0.440973,0.96212 0,1.24274 -1.443184,1.24274 -1.322918,0 -3.046721,-0.24053 -5.411941,2.88637 -10.302731,4.73044 1.0423,7.57671 3.648049,13.75034 5.732647,-4.53 8.819458,-8.3384 1.643626,-2.04451 2.04451,-3.64805 l 6.013267,4.89079 q 0.801769,0.6815 0.801769,1.28283 0,0.48106 -0.481061,0.88195 -0.440973,0.40088 -1.002212,0.40088 -0.08018,0 -1.042299,-0.16035 -0.320708,-0.0401 -0.641415,-0.0401 -0.160354,0 -0.320708,0.0401 -2.164776,1.0423 -8.258219,3.64805 -1.122477,0.48106 -5.371852,2.32513 z m -35.598539,-31.9505 4.409729,0 2.806191,-3.72822 q 0.801769,-1.0423 1.242742,-1.0423 0.440973,0 1.563449,0.92203 l 4.65026,3.68814 q 0.841857,0.6815 0.841857,1.24274 0,0.88195 -1.28283,0.88195 l -18.240243,0 4.65026,2.32513 q 0.801769,0.40088 0.801769,1.28283 0,0.84186 -2.004422,2.0846 -0.320708,5.93309 -0.681504,8.6591 l 6.414151,0 1.643626,-1.76389 q 0.601327,-0.64141 1.162565,-0.64141 0.52115,0 1.162565,0.52114 l 4.169198,3.44761 q 0.52115,0.40089 0.52115,0.92204 0,0.72159 -2.164776,2.08459 -0.160354,1.12248 -0.841857,14.79264 -0.440973,8.89964 -3.848491,14.9129 -2.244953,3.88858 -6.053355,5.37185 -1.763892,0.7216 -4.65026,1.0423 -0.601326,-4.52999 -4.930878,-7.93751 l 0,-0.44097 q 5.452028,0.80177 6.414151,0.80177 2.806191,0 4.249375,-1.60354 1.844068,-2.0846 3.006633,-9.42078 1.0423,-6.73486 1.0423,-16.19574 0,-2.68592 -0.08018,-3.92866 l -7.456451,0 q -0.801769,6.97539 -2.405306,13.14901 -3.447607,13.42962 -11.184677,21.40723 -2.365218,2.44539 -5.572293,4.40972 l -0.481062,-0.6815 q 6.414151,-5.93309 10.944146,-21.04643 4.048933,-13.58999 4.048933,-26.65882 0,-4.57008 -0.801769,-6.89521 l -1.322919,0 q -5.692559,0 -9.661315,0.72159 l -1.603538,-3.24716 q 6.97539,0.56123 12.587772,0.56123 l 1.523361,0 q -0.08018,-7.09565 -0.320708,-10.78379 -0.08018,-0.96212 -1.443184,-5.13132 l 8.739281,2.12469 q 1.082388,0.28062 1.082388,1.0423 0,0.64141 -0.601327,1.08239 -0.160353,0.12026 -1.122476,0.6815 -0.400884,0.20044 -0.922034,0.56124 l 0,1.00221 0,4.77053 0,2.32512 0,2.32513 z m 25.335897,-0.28061 16.596616,0 2.926457,-3.8485 q 0.76168,-1.04229 1.242741,-1.04229 0.320708,0 1.603538,0.88194 l 5.251587,3.8084 q 0.881945,0.64142 0.881945,1.28283 0,0.88195 -1.242741,0.88195 l -28.703327,0 q -0.240531,0.32071 -0.841857,1.08239 -5.211498,6.9353 -11.585561,9.94193 l -0.200442,-0.60132 q 7.817247,-8.45867 13.870602,-21.96847 0.801769,-1.72381 1.322918,-4.77053 l 0.160354,-0.80177 7.456451,3.88858 q 0.721592,0.3608 0.721592,0.92204 0,0.56124 -0.881946,0.96212 -0.360796,0.16035 -2.445395,0.76168 -3.888579,5.65247 -6.133532,8.61902 z"
         style="font-style:normal;font-variant:normal;font-weight:normal;font-stretch:semi-condensed;font-family:'A-TTC Ryumin';-inkscape-font-specification:'A-TTC Ryumin Semi-Condensed';writing-mode:lr-tb;fill:#ffffff"
         id="path4204" /><path
         d="m 116.09399,-206.37064 q 0.84186,-0.3207 1.52336,-0.3207 2.16478,0 5.09124,2.60575 3.16698,2.7661 3.16698,5.1714 0,1.16257 -1.64362,5.37186 -5.13132,13.26927 -5.13132,24.49404 l 0,0.56123 q 0,5.61239 1.60353,10.02212 0.44098,1.16256 1.0423,1.16256 0.56124,0 1.08239,-1.52336 4.69035,-13.14901 7.33619,-18.68122 l 0.64141,0.20045 q -0.44097,2.20486 -2.28504,9.7014 -2.88637,11.786 -2.88637,15.71467 0,0.56124 0.32071,3.64805 0.12027,1.08239 0.12027,2.0846 0,2.96654 -2.20487,2.96654 -1.76389,0 -3.4476,-2.16477 -2.68593,-3.56787 -4.20929,-10.58335 -1.00221,-4.77053 -1.00221,-10.70362 0,-5.21149 0.52115,-8.73928 l 2.68592,-17.55874 q 0.52115,-3.32734 0.52115,-5.93309 0,-4.00884 -2.84628,-7.49654 z m 24.61431,13.42963 q 2.44539,-3.28725 6.81503,-5.37185 5.77274,-2.7661 13.22919,-2.7661 6.29389,0 9.98202,2.20486 1.32292,0.80177 1.32292,2.20487 0,1.64362 -2.36522,2.32513 -0.80176,0.24053 -4.08902,0.84185 -4.93088,0.88195 -10.46308,3.56788 -1.88416,0.92203 -3.64805,2.20486 l -0.44097,-0.52115 q 0.60132,-0.56124 7.17583,-6.61459 0.52115,-0.48106 0.52115,-0.88195 l 0,-0.0401 q 0,-0.88194 -2.56566,-0.88194 -5.77274,0 -15.47414,3.72822 z m -0.24053,25.6967 q 1.16256,3.76831 2.00442,5.29167 3.28725,5.65247 16.95741,5.65247 3.1269,0 7.45645,-0.44097 2.16478,-0.24053 2.88637,-0.24053 2.24495,0 4.04893,0.88194 2.20487,1.0423 2.20487,2.64584 0,2.16478 -2.68593,2.68593 -1.92424,0.36079 -4.65026,0.36079 -19.52307,0 -24.89492,-4.61017 -4.1692,-3.60796 -4.1692,-8.89963 0,-1.72381 0.84186,-3.32734 z"
         style="font-style:normal;font-variant:normal;font-weight:normal;font-stretch:semi-condensed;font-family:'A-TTC Ryumin';-inkscape-font-specification:'A-TTC Ryumin Semi-Condensed';writing-mode:lr-tb;fill:#ffffff"
         id="path4206" /><path
         d="m 189.37567,-162.19317 0.32071,-0.72159 q 6.13353,1.96433 8.97981,3.60796 5.25159,3.00663 7.89742,7.37627 1.72381,2.84628 1.72381,5.5723 0,2.92645 -2.16478,4.28946 -0.80177,0.52115 -1.96433,0.52115 -1.44319,0 -2.4454,-1.20265 -0.6815,-0.76168 -1.56345,-3.68814 -2.88637,-9.46087 -10.78379,-15.75476 z"
         style="letter-spacing:-27.0134964px;fill:#ffffff"
         id="path4208" /><path
         d="m 42.170901,-80.051946 16.155644,0 -0.120266,-9.741492 q -0.120265,-12.427422 -0.320707,-14.351662 -0.320708,-2.84628 -1.523361,-6.57451 l 9.54105,3.24717 q 1.242742,0.40088 1.242742,1.0423 0,1.16256 -2.766103,2.52557 -0.160354,5.211497 -0.160354,15.554316 l -0.04009,8.298308 16.877235,0 q 0.120265,-3.728225 0.120265,-10.743703 0,-9.059989 -1.28283,-13.269271 l 8.779369,2.80619 q 1.322919,0.40088 1.322919,1.282827 0,0.881946 -2.806191,2.32513 -0.08018,2.365218 -0.08018,4.489906 0,8.378485 0.280619,13.349452 0.04009,1.042299 0.04009,1.683714 0,1.162565 -0.721592,1.884157 -1.322919,1.363007 -3.648049,1.363007 -2.244953,0 -2.244953,-1.924245 0,-0.200442 0.08018,-1.28283 l -16.716881,0 0,0.881946 0,0.881945 0.04009,28.542973 0,0.52115 21.527495,0 q 0.08018,-2.726014 0.200442,-7.696981 0.04009,-1.924246 0.04009,-4.289464 0,-9.380696 -1.403096,-13.830514 l 8.659104,2.605749 q 1.202654,0.360796 1.202654,1.0423 0,1.0423 -2.685926,2.405307 -0.04009,0.721592 -0.04009,2.445395 l 0,1.483272 q 0,11.34503 0.561238,19.482985 0.04009,0.561238 0.04009,0.881945 0,1.162565 -0.721592,1.964334 -1.322919,1.483273 -3.487695,1.483273 -2.485483,0 -2.485483,-2.32513 0,-0.360796 0.04009,-1.242742 0,-0.240531 0.04009,-2.445395 l -48.426842,0 q 0,0.561238 0.04009,1.443184 0.04009,1.122476 0.04009,2.044511 0,1.844068 -0.922034,2.685925 -1.363007,1.242742 -3.327341,1.242742 -2.445395,0 -2.445395,-2.044511 0,-0.641415 0.08018,-1.563449 0.320708,-3.567872 0.320708,-21.808114 0,-5.772736 -1.162565,-9.982023 l 8.578927,2.445395 q 1.363007,0.360796 1.363007,1.122477 0,1.002211 -2.726014,2.56566 -0.08018,3.407518 -0.08018,6.815036 0,9.460873 0.200443,13.068833 l 21.166699,0 0,-0.561238 -0.04009,-29.024034 0,-0.641415 -0.04009,-0.601327 -16.075467,0 q 0,0.240531 0,0.360796 0,3.487695 -4.089021,3.487695 -2.244953,0 -2.244953,-2.004423 0,-0.320707 0.04009,-0.881945 0.200443,-2.485484 0.200443,-11.425207 0,-1.643627 0.04009,-5.011056 0,-0.962123 0,-1.403095 0,-5.371853 -1.322919,-10.302733 l 8.538839,2.92646 q 1.28283,0.44097 1.28283,1.20265 0,1.202655 -2.56566,2.525574 -0.120265,2.285041 -0.120265,5.011056 0,1.924245 0.120265,9.180254 l 0.04009,4.36964 z"
         style="font-style:normal;font-variant:normal;font-weight:normal;font-stretch:semi-condensed;font-family:'A-TTC Ryumin';-inkscape-font-specification:'A-TTC Ryumin Semi-Condensed';writing-mode:lr-tb;fill:#ffffff"
         id="path4210" /><path
         d="m 143.4744,-93.60184 0.12027,-3.287253 q 0.12026,-3.648047 0.12026,-3.928667 0,-3.24716 -2.32513,-4.61017 -1.32292,-0.76168 -4.00884,-1.7238 1.92424,-1.92425 4.89079,-1.92425 4.24937,0 7.33618,2.92646 1.16257,1.12247 1.16257,2.4053 0,0.92204 -1.16257,4.369644 -0.6815,2.004422 -1.0423,4.730436 5.93309,-1.403095 11.94636,-3.688137 1.76389,-0.641415 2.60575,-0.641415 1.28283,0 2.96654,0.922034 1.96434,1.082388 1.96434,2.365219 0,1.28283 -1.48327,1.924245 -3.84849,1.603538 -18.52087,4.12911 -0.28061,3.407518 -0.28061,8.899634 0,1.322919 0.0401,2.966545 4.04894,-1.002211 9.42079,-2.926456 1.48327,-0.52115 2.28504,-0.52115 2.24495,0 3.92867,1.322919 0.80177,0.641415 0.80177,1.643626 0,1.363007 -2.00443,2.044511 -3.28725,1.082388 -14.35166,3.126898 0.3608,10.823881 1.80398,17.959624 6.49433,1.122476 11.82609,4.169198 5.41194,3.08681 5.41194,6.133532 0,1.363007 -0.88194,2.32513 -0.64142,0.681504 -1.64363,0.681504 -1.12248,0 -3.32734,-1.643627 -4.65026,-3.527783 -11.06441,-6.013266 -0.32071,4.129109 -2.40531,6.494328 -2.48548,2.926456 -8.85954,3.768313 -1.56345,0.200443 -3.1269,0.200443 -6.09345,0 -10.34282,-3.006634 -3.56787,-2.56566 -3.56787,-5.852913 0,-3.888579 5.21149,-6.414151 4.36964,-2.084599 12.22698,-2.084599 2.32513,0 5.09123,0.200442 -0.76168,-5.732647 -1.08239,-16.155643 -6.61459,0.76168 -11.54547,0.76168 -8.57893,0 -8.57893,-3.928667 0,-1.603538 1.84407,-3.126899 1.52336,-1.242742 3.56787,-1.483272 -1.40309,1.844068 -1.40309,2.846279 0,1.002211 1.16256,1.28283 1.0423,0.240531 3.60796,0.240531 5.17141,0 11.26486,-1.042299 0,-4.089022 0.28062,-12.186888 -8.53884,1.122477 -14.63229,1.122477 -5.25158,0 -8.09786,-1.683715 -2.56566,-1.483272 -4.08902,-4.770525 5.73264,2.365218 11.34503,2.365218 4.57008,0 15.5944,-1.683714 z m 0.76168,42.373486 q -0.20044,-0.08018 -0.48106,-0.160354 -2.64584,-0.841857 -6.49433,-0.841857 -7.33618,0 -11.34503,2.32513 -1.40309,0.841857 -1.40309,2.325129 0,1.202654 1.08239,2.004423 2.72601,2.04451 7.53662,2.04451 7.17583,0 9.78158,-3.006633 1.24275,-1.483272 1.32292,-3.888579 l 0,-0.801769 z"
         style="font-style:normal;font-variant:normal;font-weight:normal;font-stretch:semi-condensed;font-family:'A-TTC Ryumin';-inkscape-font-specification:'A-TTC Ryumin Semi-Condensed';writing-mode:lr-tb;fill:#ffffff"
         id="path4212" /><path
         d="m 236.43951,-84.782382 q 0.12026,-2.726015 0.12026,-4.810614 0,-10.222553 -1.96433,-12.226974 -1.68372,-1.7238 -5.65247,-2.72602 2.52557,-1.92424 5.85291,-1.92424 3.76831,0 6.73486,3.08681 0.84186,0.88194 0.84186,2.24495 l 0,0.16036 q 0,0.36079 -0.28062,2.004418 -0.32071,1.80398 -0.48107,5.051144 -0.28061,6.013267 -0.40088,8.338397 2.84628,-0.52115 4.28946,-0.721592 4.69035,-0.801769 7.2961,-1.523361 1.96433,-0.561239 3.52778,-0.561239 3.4877,0 5.2115,1.282831 1.20266,0.922034 1.20266,2.244953 0,1.483272 -1.12248,2.04451 -0.76168,0.400885 -2.96655,0.400885 -0.48106,0 -3.00663,-0.160354 -0.84186,-0.04009 -2.0846,-0.04009 -5.49212,0 -12.54768,0.841857 -0.76168,14.712459 -2.88637,19.32263 -2.04451,4.409729 -5.01106,4.409729 -0.76168,0 -1.363,-0.360796 -0.44098,-0.24053 -1.44319,-1.643626 -1.68371,-2.405307 -4.20928,-4.249375 -1.68372,-1.242742 -4.57009,-3.08681 l 0.0401,-0.400885 q 8.13796,2.084599 10.10229,2.084599 2.52557,0 3.44761,-3.888579 0.72159,-3.08681 1.16256,-11.545472 -8.33839,1.242742 -21.08652,4.570083 -0.20044,5.572294 -0.20044,9.260431 0,9.621226 1.76389,13.710248 1.80398,4.089021 6.61459,5.051144 2.88637,0.561238 7.41636,0.561238 6.05336,0 13.42963,-1.28283 1.96434,-0.320708 2.92646,-0.320708 2.00442,0 3.36743,1.002211 1.52336,1.162565 1.52336,2.806191 0,1.242742 -1.16256,1.844069 -2.16478,1.082388 -13.10893,1.082388 -10.42299,0 -15.91511,-1.80398 -7.49654,-2.445395 -9.74149,-9.0199 -1.96433,-5.692559 -1.96433,-18.480773 0,-0.801769 0,-2.926457 -8.65911,2.926457 -11.62565,4.850702 -1.96434,1.242742 -3.00664,1.242742 -0.92203,0 -2.16477,-0.721592 -2.4454,-1.403096 -3.72823,-3.888579 -1.00221,-1.80398 -1.00221,-3.527783 0,-0.641416 0.24053,-2.004423 3.16699,3.567872 6.37406,3.567872 1.7639,0 4.61018,-0.721592 1.92424,-0.481061 5.1714,-1.322919 1.68372,-0.481061 5.13133,-1.363007 -0.12027,-8.939723 -0.7216,-10.984234 -0.72159,-2.445395 -4.97096,-4.36964 1.68371,-1.322919 4.00884,-1.322919 2.84628,0 6.01327,2.004422 1.96433,1.242742 1.96433,2.685926 0,0.721592 -0.48106,2.926457 -0.44097,2.204864 -0.64141,7.696981 11.18467,-2.766103 21.12661,-4.449817 z"
         style="font-style:normal;font-variant:normal;font-weight:normal;font-stretch:semi-condensed;font-family:'A-TTC Ryumin';-inkscape-font-specification:'A-TTC Ryumin Semi-Condensed';writing-mode:lr-tb;fill:#ffffff"
         id="path4214" /><path
         d="m 298.93739,-103.82439 q 1.56345,-0.84186 3.1269,-0.84186 3.16699,0 6.01327,2.44539 2.84628,2.365222 2.84628,5.25159 0,1.443184 -2.20487,3.968756 -2.04451,2.365219 -7.25601,10.142377 -8.37848,12.427418 -10.3829,16.997501 2.48548,-1.844069 4.20928,-2.926457 5.01106,-3.126899 9.90185,-3.126899 4.12911,0 6.05335,2.124688 2.32513,2.56566 3.04673,7.055566 l 0.40088,2.445395 q 1.28283,6.333975 2.36522,8.178043 0.64141,1.0423 2.16477,1.80398 1.00222,0.481062 2.12469,0.481062 5.61238,0 11.70583,-6.333975 4.36964,-4.610171 8.89963,-13.950779 l 0.76168,0.200443 q -1.96433,7.45645 -4.73043,13.269275 -3.00664,6.17362 -8.49875,10.142376 -3.92867,2.806192 -8.65911,2.84628 -0.36079,0 -0.60132,0 -0.28062,0.04009 -0.48107,0.04009 -3.04672,0 -5.77273,-2.044511 -2.36522,-1.763892 -3.40752,-6.013267 -0.56124,-2.164776 -1.12248,-7.135743 -0.6815,-5.893002 -2.04451,-8.017689 -1.44318,-2.244953 -4.61017,-2.244953 -4.1692,0 -8.13795,3.728225 -5.5723,5.251587 -8.57893,12.106711 -0.40088,0.962122 -1.88416,4.449817 -1.52336,3.848491 -2.16477,4.89079 -1.08239,1.763892 -2.64584,1.763892 -1.56345,0 -2.28504,-2.164776 -0.56124,-1.563449 -0.56124,-3.327341 0,-2.004422 2.84628,-5.812825 2.88637,-3.888579 10.66353,-18.0398 13.34945,-24.373774 13.34945,-27.540761 0,-1.32292 -0.96212,-2.28504 -0.80177,-0.76168 -3.4877,-2.52557 z"
         style="font-style:normal;font-variant:normal;font-weight:normal;font-stretch:semi-condensed;font-family:'A-TTC Ryumin';-inkscape-font-specification:'A-TTC Ryumin Semi-Condensed';writing-mode:lr-tb;fill:#ffffff"
         id="path4216" /><path
         d="m 379.67552,-86.746716 q 3.72822,-9.781581 3.72822,-12.667949 0,-2.926455 -2.56566,-4.449815 -0.72159,-0.44098 -3.24716,-1.72381 2.80619,-1.00221 4.69035,-1.00221 2.12469,0 4.61017,1.60354 3.84849,2.4454 3.84849,4.20929 l 0,0.16035 q 0,1.042301 -1.08239,2.926458 -1.84407,3.247164 -3.76831,7.696982 -0.44097,1.042299 -0.92204,2.124687 2.60575,-0.400884 4.57009,-0.400884 9.54105,0 9.54105,12.708037 0,7.135743 -2.28504,16.476351 -2.52558,10.262642 -6.2538,14.391751 -4.12911,4.529995 -7.45645,4.529995 -2.12469,0 -2.28504,-2.485484 -0.16036,-2.525572 -1.28283,-4.650259 -1.0423,-1.884157 -4.69035,-7.296097 l 0.0802,-0.360796 q 0.84186,0.601326 6.2538,4.048933 2.4454,1.52336 3.64805,1.52336 1.36301,0 2.4454,-1.162564 1.40309,-1.523361 3.32734,-6.734859 3.76831,-10.503173 3.76831,-20.044223 0,-7.777158 -5.45203,-7.777158 -2.00442,0 -5.5322,0.841857 l -0.20045,0.481062 -0.20044,0.481061 q -7.57671,17.077678 -10.98423,23.932802 -6.89521,13.830513 -8.69919,15.634493 -1.08239,1.122477 -2.12469,1.122477 -0.64142,0 -1.16257,-0.400885 -1.363,-1.082388 -1.363,-3.247164 0,-2.645837 2.48548,-5.612382 3.96876,-4.690348 9.22034,-14.592194 4.00885,-7.536628 7.49654,-15.915113 l 0.20044,-0.481061 q -7.13574,2.244953 -11.38512,4.930879 -2.52557,1.603537 -3.64804,1.603537 -1.44319,0 -3.20708,-1.403095 -3.52778,-2.806191 -3.52778,-6.534417 0,-1.162565 0.88194,-2.726014 2.24496,4.008845 5.61239,4.008845 1.84406,0 8.09786,-1.603538 l 4.40973,-1.082388 4.40973,-1.082388 z m 24.01298,-2.926457 q 6.89521,1.242742 12.06662,4.610171 6.13353,4.008845 9.18025,10.142377 1.68372,3.327341 1.68372,7.21592 0,3.527783 -2.12469,3.527783 -0.84186,0 -2.64584,-1.202653 -3.32734,-2.244953 -13.14901,-3.968756 l 0,-0.561238 q 7.25601,-0.721592 9.10008,-1.723804 1.28283,-0.721592 1.28283,-2.244952 0,-1.723804 -4.00884,-6.293886 -4.08903,-4.610171 -11.38512,-9.500962 z"
         style="font-style:normal;font-variant:normal;font-weight:normal;font-stretch:semi-condensed;font-family:'A-TTC Ryumin';-inkscape-font-specification:'A-TTC Ryumin Semi-Condensed';writing-mode:lr-tb;fill:#ffffff"
         id="path4218" /><path
         d="m 448.22676,-62.653561 q 4.65026,0 8.13795,3.447606 3.60796,3.567872 3.60796,8.699193 0,5.091232 -3.60796,8.699193 -3.4476,3.447606 -8.2983,3.447606 -4.85071,0 -8.29831,-3.447606 -3.60796,-3.607961 -3.60796,-8.659105 0,-5.251586 3.60796,-8.739281 3.56787,-3.447606 8.45866,-3.447606 z m -0.28062,2.405307 q -3.72822,0 -6.49433,2.806191 -2.88637,2.84628 -2.88637,6.935301 0,4.089021 2.88637,6.975389 2.76611,2.766103 6.6146,2.766103 3.84849,0 6.65468,-2.766103 2.84628,-2.886368 2.84628,-6.935301 0,-4.209286 -2.84628,-6.975389 -2.88637,-2.806191 -6.77495,-2.806191 z"
         style="font-style:normal;font-variant:normal;font-weight:normal;font-stretch:semi-condensed;font-family:'A-TTC Ryumin';-inkscape-font-specification:'A-TTC Ryumin Semi-Condensed';writing-mode:lr-tb;fill:#ffffff"
         id="path4220" /></g></g></svg>